<?xml version="1.0" encoding="UTF-8"?>
<!-- Generator: Adobe Illustrator 23.0.1, SVG Export Plug-In . SVG Version: 6.00 Build 0)  -->
<!DOCTYPE svg PUBLIC "-//W3C//DTD SVG 1.1//EN" "http://www.w3.org/Graphics/SVG/1.1/DTD/svg11.dtd">
<svg version="1.1" id="svg8" xmlns:x="http://ns.adobe.com/Extensibility/1.0/" xmlns:i="http://ns.adobe.com/AdobeIllustrator/10.0/" xmlns:graph="http://ns.adobe.com/Graphs/1.0/" xmlns:cc="http://creativecommons.org/ns#" xmlns:dc="http://purl.org/dc/elements/1.1/" xmlns:inkscape="http://www.inkscape.org/namespaces/inkscape" xmlns:rdf="http://www.w3.org/1999/02/22-rdf-syntax-ns#" xmlns:sodipodi="http://sodipodi.sourceforge.net/DTD/sodipodi-0.dtd" xmlns:svg="http://www.w3.org/2000/svg" xmlns="http://www.w3.org/2000/svg" xmlns:xlink="http://www.w3.org/1999/xlink" x="0px" y="0px" viewBox="0 0 400 200" style="enable-background:new 0 0 400 200;" xml:space="preserve">
<style type="text/css">
	.st0{fill-rule:evenodd;clip-rule:evenodd;fill:#E20714;}
	.st1{fill:#FFFFFF;}
</style>
<metadata id="metadata5">
	<rdf:RDF>
		<cc:Work rdf:about="">
			<dc:format>image/svg+xml</dc:format>
			<dc:type rdf:resource="http://purl.org/dc/dcmitype/StillImage"/>
			<dc:title/>
		</cc:Work>
	</rdf:RDF>
	<sfw xmlns="http://ns.adobe.com/SaveForWeb/1.0/">
		<slices/>
		<sliceSourceBounds bottomLeftOrigin="true" height="200" width="400" x="-105.7" y="-52.8"/>
	</sfw>
</metadata>
<g>
	<polygon id="Fill-1" class="st0" points="0,200 400,200 400,0 0,0  "/>
	<g>
		<path class="st1" d="M127.4,129c-0.1,1.4-0.1,2.8,0,4.3c0,1.5,0,2.9,0,4.3v21.7h-18.5c-0.2-0.8-0.3-89,0-90.3    c0.8-0.2,16.6-0.3,17.8,0l0.8,5.8c0.3-0.3,0.6-0.3,0.7-0.5c3.5-5.2,9.1-8.5,15.4-9c7.7-1.2,15.6,0.8,21.8,5.6    c3.7,3.1,6.6,7.1,8.4,11.6c1.7,4,2.8,8.3,3.3,12.6c0.4,3.5,0.6,7,0.4,10.5c-0.1,7.3-2.1,14.4-5.6,20.7c-4,7-10.9,11.8-18.9,13.1    c-3.7,0.7-7.5,0.7-11.3,0c-4.2-0.7-8-2.8-10.7-6.1c-1-1.2-1.9-2.4-2.9-3.6l-0.6-0.8L127.4,129z M159,102.4c0-1.7-0.2-3.4-0.4-5.1    c-0.3-3-1.1-6-2.4-8.7c-1.7-3.9-5-6.7-9.1-7.8c-1.9-0.4-3.9-0.5-5.8-0.3c-4.5,0.3-8.6,2.8-11,6.6c-1.6,2.7-2.5,5.6-2.9,8.7    c-0.6,3.8-0.6,7.7-0.2,11.6c0.2,2.5,0.8,5,1.8,7.4c1.5,4.3,5.1,7.6,9.5,8.7c1.8,0.4,3.6,0.6,5.5,0.6c3.4,0,6.6-1.3,9-3.7    c1.6-1.6,2.8-3.5,3.6-5.5C158.2,110.9,159,106.7,159,102.4z"/>
		<path class="st1" d="M360.9,138.8h-17.1c-0.9-2.5-1.1-5.1-2.1-7.7c-0.3,0.2-0.6,0.3-0.7,0.4c-3.3,4.2-8.1,7.1-13.4,7.9    c-3.6,0.9-7.3,1.1-11,0.7c-5.8-0.6-11.2-3.2-15.3-7.4c-3.3-3.4-5.2-7.8-5.5-12.6c-0.2-2.6,0-5.2,0.6-7.7c1.2-5,4.4-9.3,9-11.8    c3.1-1.8,6.5-3,10-3.7c2.3-0.4,4.7-0.7,7-1.1l8-1.2l5.8-1c0.6-0.1,1.1-0.3,1.7-0.5c2.8-0.8,4.4-3.6,3.6-6.4    c-0.3-2.4-1.8-4.4-4-5.3c-1.4-0.7-2.9-1.1-4.5-1.3c-3-0.5-6.1-0.5-9.1,0c-3.4,0.5-6.2,2.9-7.3,6.1c-0.4,1-0.7,2.1-1.1,3.2h-17.2    c0-0.4,0-0.8,0-1.2c0.3-2.9,1-5.8,2.1-8.5c2.1-5.4,6.6-9.5,12.1-11.2c3.1-1,6.2-1.6,9.4-1.8c4.2-0.3,8.4-0.3,12.6,0    c4.5,0.3,8.9,1.3,13,2.9c2.9,1.2,5.6,3,7.6,5.4c2,2.3,3.2,5.1,3.5,8.1c0.1,1.2,0.2,2.4,0.2,3.5v37.7c0,2.4,0,4.8,0.2,7.2    c0.1,2.1,0.6,4.1,1.5,6C360.7,138.1,360.8,138.5,360.9,138.8z M341.5,103.7l-1.3,0.3c-3.3,0.8-6.6,1.6-9.9,2.3    c-3.4,0.7-6.7,1.7-9.8,3.1c-1.9,0.8-3.5,2-5,3.5c-3,3.4-2.6,8.5,0.7,11.4c0.4,0.4,0.9,0.7,1.5,1c1.4,0.7,3,1.2,4.6,1.2    c2.8,0.1,5.5-0.3,8.2-1.1c3.4-0.9,6.4-2.8,8.7-5.4c1.4-1.5,2.3-3.5,2.3-5.6c0-3.3,0-6.6,0.2-9.9    C341.6,104.3,341.5,104,341.5,103.7z"/>
		<path class="st1" d="M104.9,138.8H87.8c-0.9-2.5-1.1-5.1-2.1-7.7c-0.3,0.1-0.5,0.3-0.8,0.6c-2.9,3.7-7,6.3-11.6,7.4    c-4.2,1.3-8.5,1.7-12.9,1.1c-6.2-0.6-11.9-3.5-16-8.2c-3-3.4-4.6-7.8-4.7-12.3c-0.2-2.7,0.1-5.3,0.8-7.9c1.3-4.8,4.5-8.9,9-11.2    c3.1-1.7,6.4-2.9,9.9-3.5c2.9-0.5,5.8-0.9,8.7-1.3c2.9-0.4,6.3-1,9.4-1.5c1.4-0.2,2.8-0.5,4.2-0.9c0.7-0.2,1.4-0.6,2.1-1    c1.1-0.7,1.8-1.9,1.9-3.1c0.6-3.1-1-6.2-3.9-7.6c-1.5-0.7-3-1.2-4.6-1.4c-3-0.5-6.1-0.5-9.2,0c-3.2,0.5-5.9,2.7-7,5.7    c-0.5,1.1-0.8,2.3-1.3,3.6H42.3c0-0.3,0-0.6,0-1c0.3-3.2,1.1-6.3,2.3-9.2c2.1-5.1,6.4-9,11.6-10.7c3.1-1,6.4-1.6,9.7-1.8    c4.2-0.3,8.4-0.3,12.5,0c5,0.3,9.9,1.4,14.5,3.5c2,0.9,3.7,2.1,5.3,3.6c2.9,2.9,4.6,6.8,4.7,10.9c0,1,0,2,0,2.9    c0,13.4,0,26.8,0,40.2c-0.1,2.1,0.1,4.3,0.6,6.4c0.3,1.1,0.7,2.1,1,3.1C104.6,138,104.8,138.3,104.9,138.8z M85.6,103.7l-1.5,0.3    c-3.2,0.8-6.5,1.6-9.8,2.3c-3.3,0.6-6.6,1.6-9.7,2.9c-1.8,0.9-3.5,2-4.9,3.5c-3.1,3.3-2.9,8.4,0.4,11.4c0.4,0.4,0.9,0.7,1.3,1    c1.5,0.9,3.2,1.3,5,1.4c2.2,0.1,4.4-0.2,6.6-0.7c3.4-0.7,6.5-2.4,9.1-4.7c2-1.7,3.2-4,3.4-6.6c0-2.6,0.2-5.3,0.3-7.9    C85.7,105.7,85.6,104.8,85.6,103.7z"/>
		<path class="st1" d="M266.1,41v97.9c-0.8,0.2-15.3,0.3-16.9,0V41C250,40.8,264.6,40.8,266.1,41z"/>
		<path class="st1" d="M199.3,138.8h-18V69.2c0.8-0.2,15.1-0.3,17,0l1.4,8.4c0.2-0.2,0.4-0.5,0.5-0.7c0.4-0.8,0.8-1.6,1.3-2.3    c2.3-3.8,6.3-6.4,10.8-6.8c1.7-0.2,3.5-0.2,5.3-0.2c0.6,0.1,1.1,0.2,1.7,0.4v17.7c-0.9,0-1.8-0.2-2.7-0.2c-3.7,0-7.4,1.4-10.1,4    c-3,2.8-5.1,6.3-6.3,10.2c-0.7,2.4-1.1,4.8-1,7.3c0,10.1,0,20.3,0,30.4V138.8z"/>
		<path class="st1" d="M242.8,138.8h-17.4V68.9h17.4C243,69.6,243.1,137.4,242.8,138.8z"/>
		<path class="st1" d="M289.7,138.8h-17.4V68.9h17.2C289.9,69.6,290,137.2,289.7,138.8z"/>
		<path class="st1" d="M272.5,57.4V40.9h17.4v16.4C289,57.6,274.1,57.6,272.5,57.4z"/>
		<path class="st1" d="M225.6,40.9h17.2c0.3,0.8,0.3,13.7,0,16.4l0,0l0,0c-0.1,0-0.3,0-0.4,0h-16.2c-0.2,0-0.4,0-0.6,0    C225.4,56.7,225.4,42.2,225.6,40.9z"/>
		<path class="st1" d="M379.4,50.2c0,5.5-4.5,9.9-10,9.9s-9.9-4.5-9.9-10c0-5.5,4.5-9.9,9.9-9.9C375,40.2,379.4,44.6,379.4,50.2    C379.4,50.1,379.4,50.1,379.4,50.2z M378.1,50.2c0-4.8-3.9-8.7-8.7-8.7c-4.8,0-8.7,3.9-8.7,8.7s3.9,8.7,8.7,8.7    c4.7,0.1,8.6-3.6,8.7-8.4C378.1,50.4,378.1,50.3,378.1,50.2L378.1,50.2z"/>
		<path class="st1" d="M371.7,50.5c2.4,0.9,2.1,2.9,2.1,4.9h-1.5c0-0.3,0-0.7-0.1-1c0-0.4,0-0.9,0-1.3c-0.1-0.9-0.8-1.6-1.7-1.7    c-0.9,0-1.9,0-2.9-0.2v4.3h-1.7c-0.3-3.6-0.3-7.2,0-10.8c2-0.1,4.1,0,6.1,0.3c1.2,0.2,2.1,1.3,2.1,2.5c0.3,1.2-0.4,2.5-1.6,2.9    L371.7,50.5z M367.4,49.9c1,0,1.8,0,2.6,0c0.4-0.1,0.9-0.2,1.3-0.4c0.6-0.3,0.9-1,0.8-1.7c0.1-0.6-0.3-1.3-0.9-1.5    c-1.2-0.4-2.5-0.5-3.8-0.3V49.9z"/>
	</g>
</g>
</svg>