<?xml version="1.0" encoding="UTF-8" standalone="no"?>
<svg
   width="590.26495"
   height="169.41545"
   viewBox="0 0 1756 504"
   version="1.1"
   id="svg82"
   sodipodi:docname="Logo_Moto-Guzzi.svg"
   inkscape:version="1.3 (0e150ed6c4, 2023-07-21)"
   inkscape:export-filename="Logo_Moto-Guzzi.svg"
   inkscape:export-xdpi="96"
   inkscape:export-ydpi="96"
   xmlns:inkscape="http://www.inkscape.org/namespaces/inkscape"
   xmlns:sodipodi="http://sodipodi.sourceforge.net/DTD/sodipodi-0.dtd"
   xmlns="http://www.w3.org/2000/svg"
   xmlns:svg="http://www.w3.org/2000/svg">
  <defs
     id="defs82" />
  <sodipodi:namedview
     id="namedview82"
     pagecolor="#505050"
     bordercolor="#eeeeee"
     borderopacity="1"
     inkscape:showpageshadow="0"
     inkscape:pageopacity="0"
     inkscape:pagecheckerboard="0"
     inkscape:deskcolor="#d1d1d1"
     inkscape:zoom="1.0808705"
     inkscape:cx="252.1116"
     inkscape:cy="84.653986"
     inkscape:window-width="1280"
     inkscape:window-height="1371"
     inkscape:window-x="2720"
     inkscape:window-y="1112"
     inkscape:window-maximized="0"
     inkscape:current-layer="svg82" />
  <g
     id="g419">
    <g
       id="g417">
      <path
         d="m 1544.9327,12.178641 c -18.58,10.759979 -39.6929,16.16155 -60.7828,19.261544 -26.21,3.829992 -52.7603,4.048668 -79.1902,3.718669 -77.7099,-1.769997 -155.159,-11.666393 -232.9689,-9.366398 -29.0299,0.949998 -58.1616,3.647548 -86.4416,10.557534 -13.88,3.429993 -27.2571,8.507218 -40.6671,13.387209 -28.45,10.459979 -57.09396,21.010912 -86.9239,26.8209 -9.74998,-2.689994 -19.90855,-2.920196 -29.95853,-3.120196 -11.89997,-0.709998 -23.74025,-3.176522 -34.81023,-7.646513 1,3.129994 2.10072,6.216954 3.41072,9.226948 -10.55998,-0.519999 -21.12262,-0.139478 -31.6726,0.290521 -18.25996,1.119998 -36.62502,2.301072 -54.52499,6.281064 C 797.4826,65.279956 779.30848,53.959832 760.07852,46.529847 735.12857,36.829866 708.54263,32.469925 682.10268,29.179931 c -74.13985,-8.589983 -148.98313,-3.44144 -223.03299,3.538546 -38.24992,3.599993 -76.65126,6.089747 -115.08118,5.769748 -23.91995,-0.35 -47.93051,-1.519083 -71.52047,-5.729075 -18.16996,-3.379993 -36.86751,-8.261111 -51.56748,-20.011088 2.07,12.419976 10.25839,22.880561 20.27837,30.080547 13.85997,9.95998 30.35013,15.519807 46.89009,19.069799 1.32,0.16 2.36843,0.94218 3.35843,1.772179 6.81998,5.669988 15.23004,8.979102 23.66003,11.429097 16.51996,4.66999 33.72054,6.113055 50.8005,6.833054 15.32997,0.319999 30.67208,0.306539 45.97205,-0.813459 -2.02,3.059994 -5.08995,6.97956 -2.75995,10.679553 3.06999,3.739992 8.35199,4.073873 12.81198,4.723872 16.06996,1.389997 32.17841,-0.602428 48.16838,-2.132425 -3.18999,3.309994 -8.48277,7.152021 -6.90278,12.382011 2.15,3.08999 6.25179,3.55567 9.69178,4.05567 11.04998,0.74 22.11902,-0.45931 33.009,-2.28931 -3.01999,2.77 -6.5996,5.43262 -7.9196,9.48261 -0.78,2.20999 0.44322,4.6188 2.35322,5.7988 3.12999,2.03999 6.95078,2.48912 10.58077,2.96912 11.01998,0.83 22.09863,-0.31983 32.8986,-2.57982 -2.51999,3.44999 -5.84408,7.14057 -5.51408,11.69056 0.79999,4.04999 5.36346,5.11963 8.84346,5.58963 11.97997,1.12999 23.94059,-0.9724 35.78056,-2.5624 -2.26999,3.31 -5.11075,6.86372 -4.88075,11.10372 0.78,4.52999 6.0884,5.56176 9.91839,5.89176 12.03997,0.65 23.92142,-2.04131 35.57139,-4.7413 -2.07999,2.96999 -4.66857,6.65971 -3.10857,10.4297 2.11999,3.65 6.84983,3.88054 10.60983,4.09054 10.29997,-0.2 20.3157,-3.06878 30.04568,-6.22877 -0.92,2.54999 -2.50692,5.29811 -1.62692,8.0881 1.22,2.93 4.63964,3.71892 7.48963,4.07892 14.63997,1.37 28.66854,-3.92078 42.21852,-8.68077 -9.68998,6.39999 -19.64861,12.41278 -29.09859,19.16277 -2.69999,1.57999 -2.93764,5.10789 -0.80765,7.29788 -20.67995,13.29998 -41.27349,26.76876 -61.25345,41.10873 1.07,5.98999 6.62043,9.78259 11.94042,11.81258 8.48998,3.05 17.77174,2.86854 26.61172,1.63854 0.07,5.00999 3.91066,8.86959 8.50065,10.24958 11.72997,4 24.55001,2.6488 36.34999,-0.33119 1.16999,4.27999 5.68071,5.89954 9.54071,6.87954 10.21998,2.41999 21.07577,1.70387 31.08575,-1.40612 7.98998,5.26999 18.31902,3.58697 26.879,0.76697 6.03999,-1.84999 10.66573,-6.25919 15.45572,-10.13918 0.23,1.64999 0.40508,3.3321 0.82508,4.9621 1.3,4.46999 9.24065,4.66094 10.40065,-0.0291 2.36,-6.21998 5.47855,-12.18154 9.66854,-17.36153 3.84999,6.81999 11.86387,9.67885 16.98386,15.29884 2.26,4.13999 -1.0381,8.72764 -0.0581,13.06763 1.10999,2.76 4.74899,2.83071 7.01898,1.51071 4.92999,-2.82999 8.71966,-7.29067 11.28965,-12.30066 -0.27,3.31999 -1.16989,6.55124 -1.71988,9.83123 0.04,3.2 3.80877,4.11224 6.22877,2.81225 5.57999,-3.04 9.66739,-8.22261 12.70739,-13.7126 -0.2,4.37999 -2.61062,8.86318 -0.90062,13.14317 1.57,-0.08 3.25455,0.14706 4.76455,-0.52293 7.06998,-3.2 12.36054,-9.89033 14.02054,-17.46032 1.19,1.17 2.72842,2.15259 3.35842,3.78259 1.12,3.96999 -1.22914,7.89975 -0.63914,11.89974 0.66,2.85999 4.28672,3.15851 6.53672,2.06851 5.17999,-2.64 8.97042,-7.2496 11.94041,-12.14959 -0.35,3.09999 -1.26961,6.0798 -1.78961,9.13979 -0.52,3.01999 3.14058,4.71882 5.56058,3.46882 5.95998,-2.69999 10.16235,-8.14517 13.35234,-13.69516 -0.35,3.73999 -1.53273,7.3902 -1.63273,11.1502 0.38,2.12999 3.00064,2.46921 4.70063,1.67921 10.51998,-4.05999 18.6895,-17.09273 13.43951,-28.05271 -3.28,-5.21999 -8.30762,-9.16715 -13.49761,-12.34715 -4.96999,-2.95999 -11.77398,-2.0349 -15.26397,2.72509 -2.75,-2.04999 -6.01558,-3.88652 -9.57558,-3.41653 -2.97999,0.17 -5.23073,2.29648 -7.21073,4.27647 -2.14999,-1.75999 -5.22333,-2.47494 -6.76333,-4.87494 -0.68,-2.24999 1.94069,-3.7242 3.84069,-3.7942 10.44998,-0.25 21.38839,-1.88057 30.20838,-7.89055 6.19998,-4.09 10.98233,-10.79514 11.45233,-18.35512 0.61,-6.40999 -2.34924,-12.92347 -7.37923,-16.87346 -3.78999,-2.87 -8.43929,-4.09905 -12.64929,-6.15905 1.83,-2.64999 5.92616,-6.69111 9.00616,-3.52111 3.67999,3.59999 8.05086,7.31302 13.52084,7.26302 3.96,0.15 7.45977,-2.26923 9.56977,-5.47922 3.16999,4.60999 8.66499,7.8999 14.37498,7.4199 2.63999,-0.14 4.36721,-2.3428 5.3572,-4.5728 4.75,5.14999 11.43281,9.63101 18.7328,9.04102 2.89999,-0.23 4.82733,-2.80113 5.53733,-5.42113 5.39999,5.72999 13.39817,9.62065 21.38818,8.50065 3.26,-0.41 5.5418,-3.12095 6.5018,-6.10094 5.11,3.80999 11.111,6.52006 17.501,7.17006 3.82,0.37 8.3212,0.13802 11.1212,-2.88197 2.04,-2.18 1.8567,-5.30649 1.8767,-8.07649 6.68,4.58999 14.8619,7.15725 22.9919,6.82725 3.55,-0.23 7.5972,-1.28052 9.5872,-4.52051 1.83,-3.20999 0.7709,-6.95607 -0.029,-10.29606 8.04,3.15999 16.8387,4.82677 25.4787,3.77677 3.23,-0.47 6.7637,-1.48067 8.7737,-4.27066 1.75,-3.12999 -0.091,-6.64708 -1.6908,-9.40707 7.65,2.14999 15.8907,3.09046 23.7007,1.15046 3.34,-0.86 7.01,-2.76174 8.03,-6.32174 0.83,-3.50999 -1.2397,-6.63814 -2.8297,-9.55814 7.35,2.38 15.3264,2.97679 22.9163,1.4468 3.4,-0.68 6.9735,-2.17587 8.8435,-5.27586 1.53,-3.15 -0.1289,-6.56506 -1.7489,-9.28506 7.4299,1.56 15.2571,2.19254 22.7071,0.41254 3.17,-0.88999 6.8782,-2.44825 7.8382,-5.93825 0.89,-3.11999 -1.1079,-5.94416 -2.6379,-8.45416 6.54,1.41 13.3104,1.71331 19.9704,1.06331 3.6,-0.59 7.8669,-1.33119 10.0869,-4.56118 1.66,-2.37 0.2725,-5.30976 -0.6275,-7.66976 7.82,2.77 16.2393,3.42292 24.4793,2.85292 3.92,-0.45 8.2409,-1.20473 11.1909,-4.08472 2.1,-1.95 1.3223,-4.976399 1.0923,-7.466394 8.92,0.939998 17.9997,1.561466 26.9197,0.261468 5.61,-0.799998 11.4688,-3.4613 13.8288,-8.971289 18.58,2.229996 37.3306,4.447625 56.0706,3.137627 5.0399,-0.569998 10.5503,-1.036476 14.7003,-4.276469 2.73,-2.479995 1.2213,-6.382242 -0.5287,-8.942237 22.3099,0.979998 44.795,-0.170667 66.7849,-4.270659 9.35,-2.009996 19.154,-4.018551 27.094,-9.66854 3.11,-2.039995 4.6374,-5.741267 4.2474,-9.40126 14.92,-2.659994 29.77,-6.309326 43.7699,-12.219314 14.23,-6.089988 28.3536,-15.05213 35.8736,-29.052102 z M 599.96658,31.963123 c 36.35755,-0.177187 72.75478,1.770445 108.49217,8.767924 17.21995,3.41999 34.33016,7.780687 50.69011,14.200667 17.43994,6.989979 32.53137,18.989288 44.46133,33.369245 7.44998,8.689974 13.6524,18.346311 20.95238,27.146281 4.13999,4.76999 8.64931,9.56217 14.54929,12.13216 3.80999,1.82 8.1,2.1208 12.25999,2.1208 -3.38999,-1.70999 -6.96002,-3.12733 -9.93001,-5.53733 5.56998,-1.62999 11.47565,-2.19103 16.74563,-4.81102 -5.66998,0.54999 -11.40941,0.8058 -17.05939,0.006 -6.36998,-0.21 -9.74645,-6.50642 -12.73644,-11.26641 16.79995,4.06999 33.13088,-3.89892 49.87083,-4.07891 -7.41997,-4.059992 -16.21082,-2.78399 -24.31079,-3.00399 -7.28998,0.66 -14.64207,0.42125 -21.88205,-0.52875 -3.63999,-0.529998 -7.05164,-2.069718 -9.94163,-4.299711 4.20999,-1.069997 8.57942,-1.309309 12.82941,-2.289306 20.27994,-4.099987 40.1311,-11.160444 61.02104,-11.510443 3.59999,-0.01 7.18996,-0.0019 10.78995,0.0581 -0.74,-1.779995 -1.44919,-3.568834 -2.10919,-5.368829 18.36995,5.269984 38.07303,1.381821 56.30298,7.361803 3.77999,1.559995 4.98027,5.82965 6.06027,9.389639 -2.03,-2.209993 -4.20496,-4.308529 -6.77495,-5.868524 1.77999,3.16999 3.28298,6.517573 3.89298,10.127562 2.92999,-0.06 5.77983,1.267249 8.70982,0.697251 6.99998,-1.359996 14.20955,8.37e-4 21.03953,1.690838 4.60999,1.37999 9.59906,3.52231 11.85906,8.08229 1.61,3.22999 0.4895,6.88122 0.1395,10.26121 -3.25,-4.88999 -9.5492,-6.09081 -14.79918,-4.02081 -3.55999,2.07999 -7.36116,-0.26945 -11.12115,-0.13945 -9.35997,-0.09 -18.14021,4.32623 -25.31019,10.04621 -1.58999,1.46 -4.29843,1.29302 -5.25843,3.463 2.19999,3.89 5.44038,-2.02302 8.57037,-1.13302 11.94997,0.71 24.09168,3.15391 35.93164,0.0639 -1.19,2.94999 -3.61875,5.20836 -6.65874,6.11836 -15.13996,5.70998 -31.51026,0.1717 -47.07022,2.9517 -9.58997,1.99 -17.02415,8.79866 -24.94413,14.07865 -6.22998,4.44999 -12.95919,8.43986 -20.49916,10.17986 1.38999,-2.30001 4.63026,-4.2317 4.16026,-7.18168 -2.77999,-0.77001 -5.49906,0.58004 -8.05906,1.47003 -4.99998,1.88 -9.30759,5.06233 -13.92757,7.65233 8.59997,-9.39997 18.50746,-18.04818 30.23742,-23.28817 -4.57998,-0.81 -9.07251,0.98494 -13.10249,2.97494 -8.56998,4.31998 -16.24037,10.27095 -25.06035,14.13094 -9.97997,4.69999 -21.28747,5.54145 -32.13743,4.49145 -4.50999,-0.75999 -9.7011,-1.98214 -11.98109,-6.43213 7.63998,1.23 15.61103,2.40241 23.20101,0.23242 6.20998,-1.67 11.70772,-5.43083 16.00771,-10.15082 -9.78997,5.08999 -21.49597,7.8809 -32.30594,4.63091 6.41998,-1.59999 12.6577,-3.98992 18.33769,-7.4199 -14.59996,0.4 -28.94876,-4.63824 -41.10873,-12.49821 -7.44998,-4.70999 -14.0904,-10.56174 -20.40038,-16.68172 C 782.00028,105.33031 775.87835,97.810709 768.35837,91.740728 752.12842,78.360768 732.75204,69.408729 712.8921,62.868749 672.83222,50.018787 630.51938,46.140878 588.6595,45.210881 c -9.41997,-0.299999 -18.88677,-0.431894 -28.29675,0.0581 -38.57988,0.2 -76.91209,4.899063 -115.30198,8.059053 -33.2599,2.619993 -66.66068,4.483036 -100.02058,3.03304 -27.29991,-1.469996 -55.09993,-4.459021 -80.54985,-15.048989 -3.35999,-1.489996 -6.89895,-2.764798 -9.77894,-5.124791 33.0299,8.309975 67.33924,9.364777 101.22914,9.354777 36.05989,-0.209999 72.06839,-2.640979 107.99829,-5.67097 28.31991,-2.539993 56.62302,-5.429295 85.05293,-6.519292 4.87999,-0.299999 9.77971,-0.130096 14.65969,-0.610094 12.08497,-0.422499 24.19595,-0.719534 36.31513,-0.778596 z m 588.05522,0.41835 c 37.4998,-0.09 74.9479,2.039445 112.3677,4.369436 16.9899,1.089996 33.9881,2.15818 50.9981,2.998177 40.8498,2.039992 81.9446,3.370714 122.7044,-0.819269 10.75,-1.009996 21.3381,-3.228466 31.998,-4.82846 -19.5099,9.579962 -41.3394,12.851017 -62.7293,15.171008 -24.0299,2.39999 -48.1908,2.885086 -72.3107,2.725087 -52.2398,0.219999 -104.4423,-4.167979 -156.6721,-1.777989 -24.9799,1.219996 -49.9472,3.638096 -74.5071,8.518077 -21.8999,4.129983 -43.2511,10.705327 -64.391,17.675299 -22.0999,8.179967 -44.15,16.628741 -66.8199,23.148715 -9.68993,-7.919969 -22.7308,-8.722733 -34.67075,-9.66273 -0.95,-2.569989 -2.08653,-5.057347 -3.41653,-7.437338 18.93993,-4.549982 37.09918,-11.792301 55.37908,-18.442274 24.9199,-9.119964 49.6784,-19.2988 75.8783,-24.18878 28.3799,-5.549978 57.3519,-6.968961 86.1918,-7.448959 z M 565.22608,53.682474 c 1.28358,-0.01059 2.56731,0.01472 3.8523,0.06972 -5.54997,4.199979 -12.27579,6.336068 -18.82576,8.396058 -8.95995,2.499987 -18.8948,4.189279 -27.74476,0.389298 5.07998,-2.449988 10.64003,-3.654798 16.06001,-5.124791 8.73245,-2.04749 17.67309,-3.656189 26.65821,-3.73029 z m 37.87813,0.703061 c 6.47552,0.07121 13.02376,0.972504 19.44747,1.214378 -7.10995,2.919982 -14.80961,4.698734 -22.50957,4.758734 -4.17997,-0.299998 -8.57003,-1.097861 -11.83001,-3.927844 4.86497,-1.65374 9.85559,-2.100656 14.89211,-2.045268 z m -88.83552,1.894197 c -4.21997,1.589989 -8.69767,2.297757 -13.06764,3.31775 -26.08981,5.569961 -52.55325,9.332602 -79.10306,11.812585 -25.74982,2.179984 -51.70052,3.287631 -77.47034,0.807648 -14.86989,-1.559989 -29.94837,-3.828979 -43.75827,-9.778937 13.6499,1.629988 27.37787,2.77157 41.13778,2.77157 36.31974,0.849994 72.68591,-0.430587 108.87565,-3.660565 21.13985,-1.649988 42.22603,-3.890061 63.38588,-5.270051 z M 1238.741,58.18555 c 7.3342,0.0011 14.6444,0.563313 21.76,2.49267 2.61,0.649994 5.2092,1.330811 7.8092,2.120804 -4.96,2.829974 -10.9413,1.951628 -16.3912,1.911628 -10.2299,-0.879992 -20.6608,-2.09018 -30.2607,-5.880145 5.6568,-0.306248 11.3782,-0.645795 17.0827,-0.644957 z m -591.28586,0.232417 c 8.2572,0.07725 16.42028,2.046345 24.56646,3.253835 -11.7299,3.939969 -23.36214,9.720186 -36.04204,9.250189 -6.10995,-0.06 -12.03848,-2.190599 -17.08844,-5.560572 8.18993,-2.779978 16.45974,-5.470497 25.01967,-6.850486 1.18374,-0.07375 2.36475,-0.104001 3.54435,-0.09297 z m 626.20646,0.331194 c 22.4598,0.249997 44.9369,1.391508 67.4067,1.731505 14.9498,0.929991 29.943,0.828147 44.9029,1.52814 22.0898,-0.02 44.2874,0.369072 66.2272,-2.730897 -9.6599,5.049949 -20.709,6.480964 -31.3589,8.000949 -25.8697,2.97997 -51.987,2.373967 -77.9468,1.10398 -23.1897,-1.819982 -46.9113,-2.493749 -69.2311,-9.633677 z m -74.8382,1.417742 c 4.3074,0.005 8.5694,0.55379 12.6144,2.21377 6.1999,2.389972 12.473,4.687771 18.4829,7.547736 l -0.07,0.581043 c -6.9999,2.149974 -14.3982,0.598145 -21.3881,-0.801838 -7.79,-1.979977 -15.2855,-4.999067 -22.5154,-8.489025 4.2149,-0.519993 8.5684,-1.056686 12.8759,-1.051686 z m -619.32112,0.04067 c 3.79996,3.949957 9.37975,5.161125 14.65969,5.421122 -11.33988,4.57995 -22.68954,9.923053 -35.0194,11.063041 -4.52995,0.499994 -9.09469,-0.212744 -13.40464,-1.632728 11.18987,-5.089944 22.08448,-10.931478 33.76435,-14.851435 z m 587.00932,4.125399 c 3.5327,0.03659 7.0234,0.548081 10.3658,1.917438 8.9999,3.789951 17.844,7.958947 26.4839,12.538888 -3.5999,1.639978 -7.6831,1.208042 -11.493,0.918046 -13.8298,-1.609979 -26.9858,-7.025772 -38.9356,-13.985682 4.4324,-0.697491 9.0369,-1.435733 13.5789,-1.38869 z m -658.27994,2.097561 c 1.06592,0.07219 2.01326,1.093889 2.98075,1.551383 4.41994,2.899959 9.77637,3.62593 14.88629,4.415919 -7.61989,3.159956 -15.64622,5.182781 -23.59611,7.332751 -24.05967,5.879917 -48.64312,10.317811 -73.47277,10.487809 -4.22994,-0.389995 -8.52907,-2.29e-4 -12.71901,-0.790218 -1.75997,-1.649977 0.60986,-4.219187 2.57983,-4.00919 30.00958,-2.83996 59.56163,-9.456441 88.23123,-18.686312 0.3875,-0.242496 0.75448,-0.326204 1.10979,-0.302142 z m 179.71049,1.51652 c 6.04444,-0.0094 12.09531,1.097612 17.90772,2.725087 -10.30985,4.549932 -20.4413,9.830275 -31.41113,12.620233 -7.47989,1.199982 -16.69075,1.720073 -22.23067,-4.479834 9.54986,-4.379934 19.52302,-7.864606 29.70287,-10.464567 2.00497,-0.272496 4.0164,-0.397794 6.03121,-0.400919 z m -78.08043,1.063307 c 5.73991,4.97992 13.01874,7.991475 20.63862,8.29147 -9.20985,5.109918 -19.25994,8.619016 -29.42978,11.248974 -9.49985,2.079967 -20.03359,3.810782 -29.13345,-0.639146 12.6198,-6.319899 25.16482,-12.841395 37.92461,-18.901298 z m 668.75038,0.981961 c 7.952,0.126927 15.5893,2.763265 23.3985,4.038242 14.8198,2.859949 29.84,4.537475 44.8797,5.717454 5.4099,0.729987 10.9983,0.242879 16.2982,1.812851 -9.8098,2.909948 -20.1476,2.379452 -30.2374,2.039458 -17.0397,-1.039982 -33.9992,-3.20112 -50.7889,-6.281065 -8.1098,-1.599971 -16.2801,-3.099522 -24.09,-5.839472 6.0999,-1.979965 12.6179,-1.35166 18.9478,-1.481657 0.5331,-0.015 1.0619,-0.01427 1.5921,-0.0058 z m -141.6232,0.04648 c 5.3163,-0.0054 10.5638,1.011361 15.1594,3.840688 6.4799,3.609939 13.2312,6.890122 19.1511,11.400045 -3.3399,0.659989 -6.7509,1.420606 -10.1508,0.900615 -13.2398,-1.299978 -25.5883,-7.152386 -36.4081,-14.642259 3.9374,-0.874985 8.1134,-1.494867 12.2484,-1.499089 z m 105.6973,6.455378 c 1.1709,0.03797 2.3296,0.618257 3.4921,0.865752 13.2297,4.119922 26.6318,7.62039 39.9815,11.33032 -8.0699,2.819946 -16.8483,2.177602 -25.1882,1.237619 -13.2397,-1.679968 -25.9344,-6.196101 -38.2442,-11.156007 6.3299,0.739986 12.7152,-0.253407 18.7851,-2.103372 0.3925,-0.139997 0.7834,-0.186968 1.1737,-0.174312 z m -132.2974,0.488075 c 5.1289,0.02692 10.1776,1.235173 14.4912,4.177692 6.1998,4.279915 12.5709,8.377983 18.1808,13.427882 -8.9299,3.789924 -18.9384,0.810419 -27.0882,-3.509494 -6.4899,-3.709926 -12.7232,-7.841317 -19.0931,-11.731239 3.9331,-1.356223 8.2194,-2.247095 12.4808,-2.35322 0.3425,-0.0085 0.6865,-0.01342 1.0285,-0.01162 z m -392.37191,2.585637 c 0.32871,0.0067 0.66109,0.02229 0.99358,0.05229 6.79985,0.489989 13.28235,3.02263 19.30222,6.112562 -10.64977,4.339904 -21.27456,8.878714 -32.29432,12.178641 -8.67981,1.799961 -19.03947,2.867376 -26.37931,-3.172489 7.67983,-4.629899 16.10233,-7.867428 24.39215,-11.237353 4.5374,-1.62184 9.05498,-4.033885 13.98568,-3.933655 z m -184.46923,0.13945 c 5.31989,4.599903 12.78288,5.703938 19.59274,5.763937 -21.41955,10.049789 -44.42119,17.200782 -68.08069,19.040742 -4.9799,0.23 -10.0287,0.78689 -14.9386,-0.27309 1.16998,-2.22995 3.28075,-3.64987 5.7407,-4.04986 19.85958,-4.859895 39.16624,-11.821911 57.68585,-20.481729 z m 107.24293,4.584422 c 5.79987,5.19988 13.472,7.436499 21.09183,8.076484 -12.60971,6.10986 -25.76008,11.721433 -39.78976,13.381393 -6.17986,0.43999 -12.83497,0.79252 -18.42484,-2.34741 12.37971,-6.359848 24.67306,-12.89061 37.12277,-19.110467 z m 573.19801,0.737923 c 12.0297,5.01988 24.2716,9.602216 36.0013,15.322074 -12.1997,2.83993 -25.1527,0.63611 -36.5824,-4.113773 -6.7498,-3.299921 -13.7663,-6.030794 -20.4062,-9.54071 7.0099,0.939977 14.2574,0.712352 20.9873,-1.667591 z m -132.6694,1.586245 c 0.5999,-0.01359 1.1975,-0.01297 1.7955,0 4.7836,0.103747 9.4818,1.096039 13.7067,3.555977 6.4899,4.619885 12.8792,9.44698 18.849,14.746842 -7.2498,2.50994 -15.2908,1.56313 -22.2306,-1.44679 -8.8698,-3.829904 -16.7492,-9.501422 -24.5491,-15.101282 3.9987,-0.940602 8.2292,-1.65959 12.4285,-1.754747 z m 99.5035,5.066686 c 11.4597,5.249864 22.9548,10.646703 33.5145,17.576523 -12.2897,3.89989 -25.4755,-0.0771 -36.4953,-5.85691 -5.9698,-3.28991 -12.182,-6.181048 -17.9019,-9.900951 6.9899,1.479962 14.0829,-0.428698 20.8827,-1.818662 z m -618.34495,2.289306 c 6.9198,5.34985 16.231,6.570907 24.74077,6.530907 -18.78948,9.74973 -39.4718,15.59748 -60.34122,18.83738 -7.0298,0.75998 -14.17566,1.97248 -21.22546,0.84252 0.55998,-2.35994 1.95638,-4.62508 4.52631,-5.05507 18.12949,-5.19985 35.41007,-12.85597 52.2996,-21.155737 z m 184.34139,1.435174 c 5.89077,-0.11414 11.85081,2.542461 16.44349,6.164853 -8.68974,4.38987 -17.49158,8.6282 -26.50132,12.31809 -8.51976,2.45993 -19.00386,2.92085 -26.12365,-3.21897 9.04973,-5.94983 19.39358,-9.65339 29.38329,-13.753264 2.19931,-1.001221 4.49311,-1.466045 6.79819,-1.510709 z m 308.74246,1.481657 c 4.2662,-0.0175 8.423,0.88525 11.9579,3.550166 5.7598,4.71985 11.3478,9.70212 16.4377,15.14195 -0.06,1.76995 -2.6385,0.96708 -3.7884,1.37707 -14.7796,1.27996 -26.8277,-9.01974 -37.2274,-18.099453 3.9799,-1.014969 8.3541,-1.952233 12.6202,-1.969733 z m -386.57885,3.480436 c 5.60982,4.78984 12.76944,7.51082 20.06919,8.2508 -13.66954,7.78974 -29.04425,14.52001 -45.12372,13.30005 -2.56992,-0.11 -4.9654,-1.10949 -7.31532,-2.03946 10.83964,-6.40978 21.48021,-13.1616 32.36985,-19.51139 z m 483.75815,1.80123 c 11.1396,6.0798 22.5485,12.01743 32.1781,20.37715 -0.03,0.22999 -0.09,0.68062 -0.1104,0.90061 -7.7197,2.43992 -15.9765,0.6291 -23.3462,-2.1208 -6.2498,-2.22993 -11.662,-6.14826 -17.2918,-9.55814 -4.1899,-2.71991 -8.6014,-5.1205 -12.5912,-8.1404 7.0897,1.51995 14.2318,-0.008 21.1615,-1.45842 z m -124.6742,5.7407 c 4.741,0.0108 9.3933,0.78857 13.3756,3.55597 5.2498,4.57984 10.2088,9.53406 14.9386,14.65389 -15.3495,2.96989 -29.103,-7.0942 -39.2726,-17.41383 3.5261,-0.34999 7.2711,-0.80444 10.9584,-0.79603 z m -432.41726,2.09756 c 7.67972,4.50984 16.94885,5.71042 25.72854,5.81042 -15.38945,8.2297 -32.28784,13.40372 -49.30723,17.05358 -8.70969,1.73994 -17.61908,2.91969 -26.51876,2.39971 -0.1,-2.26992 1.33863,-4.33307 3.53855,-4.93305 15.92942,-5.79979 31.14945,-13.31091 46.5589,-20.33066 z m 527.35956,2.49267 c 11.8096,7.29973 23.7226,14.68981 33.8922,24.22945 -9.5497,3.80986 -20.5026,1.26614 -29.2322,-3.50368 -9.1597,-5.61979 -17.0903,-12.94624 -25.8099,-19.18601 7.0497,1.55994 14.3202,0.59016 21.1499,-1.53976 z m -353.7442,2.81805 c 4.90448,-0.0196 9.872,2.10333 13.47436,5.36883 -9.55963,4.93981 -19.67754,10.22905 -30.73712,9.95906 -4.13984,0.06 -8.15394,-1.29688 -11.71381,-3.3468 7.22973,-4.02985 14.86338,-7.25861 22.46309,-10.52848 2.06867,-0.98746 4.28417,-1.44368 6.51348,-1.45261 z m -70.05624,1.56301 c 5.53978,4.69981 12.53922,7.23746 19.70895,8.04743 -9.03965,4.9998 -18.92021,8.40181 -28.99981,10.55172 -6.77974,1.23995 -14.21049,2.50682 -20.65024,-0.70306 9.96961,-5.97977 19.80149,-12.18632 29.9411,-17.89609 z m 394.80064,7.37923 c 12.2795,8.16967 24.0725,17.29694 34.7521,27.50653 -8.3096,1.91992 -17.2893,1.26975 -24.979,-2.5101 -11.1495,-5.28979 -19.5734,-14.57907 -28.5931,-22.71874 0.01,-0.22 0.042,-0.65739 0.052,-0.87738 6.2598,1.45994 12.6279,-0.0404 18.7677,-1.40031 z m -465.11835,1.70826 c 6.80972,4.71981 15.357,5.90798 23.45667,6.00798 -15.57936,8.42965 -32.76694,13.66144 -50.19622,16.57132 -5.67977,0.77997 -11.4126,1.59882 -17.15236,1.13884 0.23999,-1.89992 1.05217,-3.86662 3.06209,-4.45659 13.89943,-5.77977 27.27038,-12.76181 40.82982,-19.26155 z m 162.62786,4.2358 c 3.20592,-0.0654 6.46686,0.90558 9.27924,2.40551 -0.02,0.21 -0.0555,0.6209 -0.0755,0.83089 -8.90962,5.99975 -20.67307,11.69706 -31.24263,6.39728 5.06979,-3.49986 10.90792,-5.64158 16.43768,-8.29147 1.76993,-0.89246 3.6777,-1.30295 5.60125,-1.34221 z m -62.54918,2.92264 c 5.48977,3.39986 11.61231,5.82351 18.08203,6.51348 -7.99966,3.90984 -16.45112,6.94638 -25.17074,8.75631 -6.34973,1.12995 -13.22924,1.82089 -19.27898,-0.889 8.76963,-4.82979 17.32808,-10.08097 26.36769,-14.38079 z m 315.98227,0.093 c 6.4997,2.3599 13.6075,2.75606 20.3772,1.40612 11.7494,9.60958 24.0741,18.86116 33.7236,30.69064 -10.0395,1.64993 -21.2413,0.65038 -29.331,-6.08932 -9.2096,-7.70966 -16.5401,-17.31782 -24.7698,-26.00744 z m -23.5612,2.92845 c 4.9597,1.38994 10.0577,2.18188 15.2175,2.27188 10.1695,11.95946 20.8524,23.67175 29.0521,37.11115 -8.0797,1.22994 -16.9192,-0.44362 -22.8989,-6.33336 -9.6196,-9.17958 -14.781,-21.74018 -21.3707,-33.04967 z m -22.48056,1.94068 c 4.16986,1.36994 8.47056,2.2924 12.80036,2.99237 6.8997,12.63942 14.1219,25.23004 19.0117,38.81942 -7.4497,0.30998 -14.8646,-3.50125 -18.7444,-9.90096 -6.1797,-9.78955 -9.0978,-21.14132 -13.06766,-31.91083 z m -338.11998,2.30093 c 5.32975,3.54983 11.91813,4.07984 18.08784,4.9098 -14.02934,7.09967 -29.15584,12.16144 -44.7751,14.24134 -2.2499,0.25999 -4.53506,0.48457 -6.77495,0.10459 -1.05995,-1.35994 0.6648,-2.72845 1.75475,-3.35842 10.71949,-4.98977 21.22795,-10.42757 31.70746,-15.89731 z m 151.68683,0.85413 c 0.17549,-0.003 0.35305,-0.002 0.52875,0 3.09242,0.0426 6.19752,0.94057 9.06426,2.03365 -6.66968,4.85976 -16.19998,9.5727 -23.97961,4.32295 3.44984,-2.1399 6.91203,-4.38211 10.73185,-5.82204 1.2058,-0.34725 2.42635,-0.51206 3.65475,-0.53456 z m 176.27073,1.38288 c 3.30984,11.89942 7.06081,23.68198 10.40065,35.57139 -5.15975,-0.94995 -10.33007,-3.64899 -12.68996,-8.55875 -3.85981,-7.80961 -4.65938,-16.65075 -6.51929,-25.06034 2.96986,-0.43998 5.89874,-1.14234 8.8086,-1.9523 z m -41.98029,2.27187 c 0.52997,8.45958 1.10262,16.93034 1.88258,25.37992 -4.1398,-1.85991 -7.83175,-5.09823 -9.51166,-9.37802 -1.79991,-4.49977 -1.85893,-9.4309 -1.74894,-14.20067 3.02985,-0.98995 6.17818,-1.61124 9.37802,-1.80123 z m 12.28323,0.1104 c 2.87985,0.13999 5.78092,0.16823 8.68077,0.23823 1.9599,10.14948 3.58824,20.37333 5.32815,30.56281 -4.52977,-2.08989 -9.02787,-5.08444 -10.91778,-9.9242 -2.58986,-6.61966 -2.65116,-13.8772 -3.09114,-20.87684 z m -200.23871,0.29052 c 5.22973,3.19984 11.28861,4.67171 17.3383,5.28168 -12.27937,6.10968 -26.2814,11.74506 -40.19068,8.60523 7.51961,-4.76975 15.12278,-9.44714 22.85238,-13.88691 z m -64.90239,6.89697 c 4.34977,2.37988 9.1689,3.65096 14.07864,4.20094 -13.0293,5.88968 -27.27147,9.90812 -41.66071,9.55814 0.25999,-1.40993 0.94275,-2.7663 2.49267,-3.05628 8.49955,-3.21983 16.70984,-7.20298 25.0894,-10.7028 z m 232.8584,1.38288 c 0.14,5.80969 0.64239,11.59996 0.66239,17.41964 -4.37976,-2.60986 -8.43304,-5.84874 -11.31289,-10.09851 3.52981,-2.45987 7.0207,-4.99125 10.6505,-7.32113 z m -138.6192,1.49909 c 4.93973,1.52992 9.88941,3.58152 15.22912,3.20154 -8.66953,5.38971 -18.20839,9.94027 -28.44782,11.1502 -2.39987,0.37998 -4.80114,-0.0913 -7.14101,-0.51132 6.70963,-4.71974 13.3301,-9.61065 20.35971,-13.84042 z m 28.68024,8.15202 c 3.82979,2.13988 8.12265,3.28802 12.4924,3.678 -8.28953,5.2697 -18.0811,10.14731 -28.18054,8.4774 5.03972,-4.27976 10.34844,-8.24562 15.68814,-12.1554 z m -88.53919,1.59787 c 6.91961,2.84983 14.41058,4.19809 21.94015,4.28809 -11.54934,8.35952 -24.21945,15.6635 -38.16865,19.02331 -5.88966,1.40992 -12.06291,1.74841 -17.94258,0.1685 11.50935,-7.64956 22.73174,-15.73035 34.17108,-23.4799 z m 132.40786,7.15843 c 0.75286,-0.0236 1.51192,-0.0269 2.27188,0 6.41963,0.05 14.0324,1.42364 17.83218,7.1933 5.45968,8.05954 3.57996,19.74037 -3.25965,26.41999 -4.78972,4.86971 -11.72266,7.12695 -18.44227,7.32694 -10.64938,0.33998 -21.61184,0.6787 -31.59126,4.82846 -0.15999,-0.59997 -0.47915,-1.77488 -0.63914,-2.36485 -12.1493,5.77967 -24.02184,13.83977 -30.48147,26.01907 -2.25987,3.74978 -2.95572,8.2009 -5.34559,11.87069 -2.57985,-3.11982 -0.75279,-7.21368 -0.34281,-10.74347 2.19987,-11.79932 9.34227,-21.86007 17.29181,-30.53957 9.00948,-9.56945 19.64046,-17.84929 31.75976,-23.07899 -2.99983,-1.22993 -6.05254,-2.32105 -9.12236,-3.34099 8.32452,-7.34958 18.77607,-13.23724 30.06892,-13.59058 z m -100.52027,2.44038 c 6.93959,3.70978 14.92475,1.69975 22.36431,1.53976 -10.45938,8.89948 -22.05503,17.1699 -35.48424,20.78969 -5.62967,1.6799 -11.57025,1.27234 -17.34991,1.09235 10.51938,-7.32956 20.01046,-16.01224 30.46984,-23.4218 z m 135.83601,2.97494 c 5.08553,-0.10175 10.18999,1.24952 14.3285,4.28809 4.58972,3.2298 7.34532,9.20042 6.0254,14.77008 -1.40991,5.94965 -6.15941,10.54022 -11.4291,13.30006 -9.22944,4.9097 -20.01128,5.58057 -30.26067,5.1306 3.12982,-1.88989 6.64549,-3.29327 9.21533,-5.97311 7.68954,-7.79954 10.17719,-20.5895 5.28748,-30.4989 2.21237,-0.62184 4.52145,-0.97057 6.83306,-1.01682 z m -101.08389,4.55537 c 2.55985,0.95994 5.22207,1.76042 7.9719,2.0104 4.44973,0.14999 8.82965,-1.38721 13.25938,-1.12722 -9.44942,8.72947 -20.19302,16.67912 -32.60227,20.56889 -5.41967,1.85988 -11.20637,1.66975 -16.85603,1.53976 9.8094,-7.15956 18.54762,-15.65228 28.22702,-22.99183 z m -110.6304,13.56152 c 8.0995,4.8397 18.10928,3.11087 26.94873,1.87095 -15.04907,11.87927 -30.95878,22.68978 -47.26777,32.75915 -9.83939,6.35961 -23.71187,8.29596 -33.92123,1.76637 18.13887,-12.04925 36.25139,-24.13723 54.24027,-36.39647 z m 37.361,9.08168 c 8.20949,4.24974 17.93944,3.57491 26.69889,1.68503 -3.56978,3.85975 -7.90189,6.90438 -11.84164,10.35416 -13.17917,10.65933 -26.07899,22.31078 -41.92799,28.86036 -9.00944,3.71977 -19.77729,5.28818 -28.72672,0.59848 19.66876,-12.32923 37.8186,-26.86895 55.79746,-41.49803 z m 37.26223,7.53031 c 7.93949,3.33978 16.71047,2.19567 24.94994,0.86575 -9.10941,8.48946 -18.41454,16.80074 -27.52396,25.31019 -8.03948,7.64951 -18.18739,13.21114 -29.15669,15.17101 -5.42965,0.76995 -11.19923,1.03872 -16.3389,-1.19114 16.25896,-13.09916 32.49061,-26.2467 48.06961,-40.15581 z m 36.64051,2.63793 c -4.01974,8.01948 -8.15377,16.11052 -10.06365,24.94994 -4.30972,3.97975 -8.21038,8.5197 -13.30005,11.5395 -6.29959,3.84975 -13.83784,5.39085 -21.16736,5.06088 14.79904,-13.8891 29.49204,-27.91121 44.53106,-41.55032 z M 911.5097,231.3361 c 0.31683,0.01 0.63718,0.0656 0.95872,0.17431 3.24978,1.5399 5.64259,4.34768 8.26242,6.75752 2.26985,2.48983 5.29005,5.02006 5.27005,8.70982 0.40997,5.20966 -3.2691,9.49409 -7.26884,12.3239 0.68996,-3.64976 1.20736,-7.76231 -0.84251,-11.09209 -2.58983,-4.06973 -6.95831,-6.52915 -9.98811,-10.20891 -2.07518,-2.54639 0.54559,-6.76022 3.60827,-6.66455 z m -17.90191,1.27829 c 0.0902,-0.004 0.1827,-0.003 0.27309,0 0.66753,0.0199 1.33341,0.23659 1.9465,0.71468 4.40969,3.16978 8.42038,7.07075 11.58016,11.51044 2.81981,5.95959 -1.37532,12.40837 -6.34498,15.68814 0.42997,-3.58975 1.07641,-7.49761 -0.81345,-10.80738 -2.55983,-4.3597 -7.31209,-6.80185 -10.30188,-10.80157 -1.77087,-2.63664 0.86421,-6.16498 3.66056,-6.30431 z m -17.58233,0.49389 c 3.24642,-0.007 5.59118,2.98031 7.98352,4.89237 3.14979,3.08979 7.72826,6.09081 7.40829,11.08047 0.19998,4.89967 -3.26465,8.88914 -6.9144,11.67895 0.48996,-3.21978 0.99763,-6.67104 -0.48227,-9.72084 -2.25985,-5.12965 -7.96987,-7.34207 -11.28965,-11.59179 -1.51989,-2.25984 0.2304,-5.02466 2.26026,-6.23458 0.35622,-0.0694 0.69842,-0.10383 1.03425,-0.10458 z m -20.92332,0.0116 c 0.68596,0.013 1.387,0.23733 2.03946,0.73792 4.4197,3.16979 8.43943,7.07074 11.60922,11.51044 2.81981,5.9796 -1.48896,12.58105 -6.47862,15.85083 1.07993,-4.26971 1.0579,-9.14925 -1.84191,-12.71901 -2.69981,-3.23978 -6.37051,-5.49977 -9.00034,-8.77955 -2.05548,-2.72981 0.69969,-6.6569 3.67219,-6.60063 z m -17.88448,1.19113 c 3.68975,0.88994 6.11109,4.17757 8.8609,6.5774 2.31983,2.65981 5.76974,5.14966 5.76974,9.02939 0.32998,5.19964 -3.17885,9.72287 -7.33856,12.42268 0.45997,-3.11978 1.26951,-6.51349 -0.1104,-9.52328 -2.08985,-5.28963 -7.7403,-7.75895 -10.97007,-12.17864 -1.28991,-2.7898 0.7886,-6.08756 3.78839,-6.32755 z m -17.15817,0.63334 c 2.47649,0.12796 4.37958,2.2837 6.26945,3.7361 2.88979,2.69981 6.2431,5.16912 8.12296,8.73887 1.98987,5.7296 -1.47464,11.853 -6.3043,14.93278 0.29998,-3.24977 0.87169,-6.74496 -0.6682,-9.78475 -2.43983,-5.04964 -8.15703,-7.18628 -11.3768,-11.58597 -0.70995,-2.30984 0.21891,-5.46153 2.85872,-5.9615 0.37873,-0.0725 0.74439,-0.0938 1.09817,-0.0755 z"
         style="fill:#0a0a0a"
         id="path417" />
      <path
         d="m 599.96658,31.963123 c -12.1192,0.05906 -24.23015,0.356097 -36.31513,0.778596 -4.87999,0.479999 -9.7797,0.310095 -14.65969,0.610094 -28.42994,1.089998 -56.73299,3.979297 -85.05293,6.519292 -35.92993,3.029994 -71.93836,5.46097 -107.99829,5.67097 -33.88993,0.01 -68.19921,-1.044793 -101.22914,-9.354777 2.87999,2.359996 6.41894,3.634794 9.77894,5.124791 25.44995,10.589979 53.24991,13.578992 80.54985,15.048989 33.35994,1.449997 66.76065,-0.413045 100.02058,-3.03304 38.38992,-3.159993 76.72206,-7.859053 115.30198,-8.059053 9.40998,-0.489999 18.87677,-0.358103 28.29675,-0.0581 41.85992,0.929998 84.17268,4.807893 124.2326,17.657868 19.85996,6.539987 39.2363,15.492005 55.46627,28.871979 7.51999,6.069988 13.6419,13.589568 20.23189,20.609558 6.30998,6.11999 12.9504,11.97173 20.40038,16.68172 12.15998,7.85998 26.50876,12.89821 41.10873,12.49821 -5.67999,3.42999 -11.9177,5.81991 -18.33769,7.41991 10.80998,3.24999 22.51596,0.45908 32.30594,-4.63091 -4.29999,4.71999 -9.79772,8.48081 -16.00771,10.15081 -7.58999,2.16999 -15.56102,0.99758 -23.20101,-0.23242 2.28,4.44999 7.4711,5.67214 11.98109,6.43213 10.84998,1.05 22.15745,0.20854 32.13743,-4.49145 8.81998,-3.85999 16.49036,-9.81095 25.06035,-14.13094 4.02999,-1.99 8.5225,-3.78494 13.10249,-2.97494 -11.72997,5.23999 -21.63744,13.88819 -30.23742,23.28817 4.61999,-2.59 8.92758,-5.77233 13.92757,-7.65233 2.56,-0.88999 5.27906,-2.24003 8.05906,-1.47003 0.47,2.94999 -2.77027,4.88168 -4.16026,7.18168 7.53998,-1.74 14.26917,-5.72987 20.49916,-10.17986 7.91998,-5.27999 15.35415,-12.08865 24.94413,-14.07865 15.55997,-2.77999 31.93025,2.7583 47.07022,-2.95169 3.03999,-0.91 5.46874,-3.16838 6.65874,-6.11837 -11.83998,3.08999 -23.98166,0.64608 -35.93164,-0.0639 -3.12999,-0.89 -6.37037,5.02302 -8.57037,1.13303 0.96,-2.16999 3.66843,-2.00301 5.25843,-3.46301 7.16999,-5.71999 15.95021,-10.13621 25.31019,-10.04621 3.76,-0.13 7.56115,2.21944 11.12115,0.13945 5.24999,-2.07 11.54918,-0.86918 14.79918,4.02081 0.35,-3.38 1.4705,-7.03121 -0.1395,-10.26121 -2.26,-4.55999 -7.24907,-6.70229 -11.85906,-8.08229 -6.82999,-1.689994 -14.03955,-3.050827 -21.03953,-1.690829 -2.93,0.569999 -5.77983,-0.757251 -8.70982,-0.697251 -0.61,-3.609992 -2.11299,-6.957569 -3.89298,-10.127562 2.56999,1.559996 4.74495,3.658529 6.77495,5.868524 -1.08,-3.559993 -2.28028,-7.829642 -6.06027,-9.389639 -18.22997,-5.979988 -37.93301,-2.091813 -56.30298,-7.361803 0.66,1.799997 1.36919,3.588832 2.10919,5.368829 -3.6,-0.06 -7.18996,-0.0681 -10.78995,-0.0581 -20.88996,0.35 -40.74108,7.410451 -61.02104,11.510443 -4.24999,0.979998 -8.61942,1.219308 -12.82941,2.289306 2.89,2.229995 6.30164,3.769712 9.94163,4.299712 7.23999,0.95 14.59206,1.18875 21.88205,0.52875 8.09998,0.22 16.89081,-1.056007 24.31079,3.00399 -16.73996,0.18 -33.07087,8.1489 -49.87083,4.07891 2.98999,4.75999 6.36645,11.05641 12.73644,11.26641 5.64999,0.79999 11.3894,0.54418 17.05939,-0.006 -5.26999,2.61999 -11.17564,3.18103 -16.74563,4.81102 2.96999,2.41 6.54002,3.82734 9.93001,5.53733 -4.15999,0 -8.45,-0.3008 -12.25999,-2.1208 -5.89999,-2.56999 -10.4093,-7.36217 -14.54929,-12.13216 C 817.26258,106.64726 811.06018,96.990941 803.61019,88.300959 791.68022,73.920988 776.58882,61.9217 759.14886,54.931714 742.78889,48.511727 725.67871,44.15104 708.45875,40.731047 672.72132,33.733561 636.32416,31.785935 599.96658,31.963123 Z m 355.90568,60.474855 c 2.30994,1.249968 3.67596,3.393179 3.98595,5.973112 -0.83998,0.39999 -1.67107,0.798578 -2.48105,1.208568 0.37999,-2.529935 -0.52493,-4.911739 -1.5049,-7.18168 z m -23.10804,2.539154 c 5.73976,-0.0077 11.49284,0.646438 17.12331,1.650159 4.08988,0.289992 4.62458,4.953059 3.9046,8.122969 -1.22997,-0.04 -2.45479,-0.0894 -3.65476,-0.13945 -3.3899,4.32987 -7.15565,8.89962 -12.76549,10.24958 0.03,-1.48996 2.04091,-4.41955 -0.45902,-4.97953 -3.19991,-0.54998 -6.72444,-0.18179 -9.67435,1.09817 0.76998,-1.51996 2.67112,-1.87781 3.95108,-2.88778 2.69993,-1.43996 3.55986,-4.58891 4.47984,-7.26884 -1.47996,-4.549863 -6.74872,-4.842081 -10.70861,-5.392065 2.59055,-0.306242 5.19442,-0.449698 7.8034,-0.453213 z"
         style="fill:#fbfbfb"
         id="path416" />
      <path
         d="m 1188.0218,32.381473 c -28.8399,0.479999 -57.8118,1.89897 -86.1918,7.448959 -26.1999,4.88999 -50.9583,15.068798 -75.8783,24.18878 -18.2799,6.649987 -36.43911,13.892283 -55.37908,18.442274 1.33,2.379996 2.46653,4.867344 3.41653,7.437338 11.93998,0.939999 24.9808,1.742745 34.67075,9.66273 22.67,-6.519987 44.7199,-14.968732 66.8199,-23.148715 21.1399,-6.969986 42.4911,-13.545307 64.391,-17.675299 24.56,-4.87999 49.5271,-7.298079 74.5071,-8.518077 52.2299,-2.389995 104.4322,1.997989 156.6721,1.777989 24.12,0.16 48.2808,-0.325092 72.3107,-2.725087 21.39,-2.319995 43.2194,-5.591027 62.7293,-15.171008 -10.66,1.599997 -21.248,3.818462 -31.998,4.82846 -40.7599,4.189991 -81.8545,2.859265 -122.7044,0.819269 -17.01,-0.839998 -34.0081,-1.908179 -50.9981,-2.998177 -37.4199,-2.329995 -74.8678,-4.459436 -112.3677,-4.369436 z"
         style="fill:#fbfbfb"
         id="path415" />
      <path
         d="m 565.22608,53.682474 c -8.98514,0.0741 -17.92573,1.682794 -26.65821,3.73029 -5.41999,1.469997 -10.98002,2.674796 -16.06001,5.124791 8.84999,3.799992 18.78478,2.110697 27.74476,-0.389298 6.54999,-2.059996 13.27578,-4.196066 18.82576,-8.396058 -1.28499,-0.055 -2.56871,-0.08031 -3.8523,-0.06972 z"
         style="fill:#fbfbfb"
         id="path414" />
      <path
         d="m 603.10421,54.385535 c -5.03654,-0.05539 -10.02712,0.391521 -14.89211,2.045268 3.25999,2.829994 7.65002,3.627845 11.83001,3.927844 7.69999,-0.06 15.39959,-1.83874 22.50957,-4.758734 -6.42373,-0.241875 -12.97193,-1.143165 -19.44747,-1.214378 z"
         style="fill:#fbfbfb"
         id="path413" />
      <path
         d="m 514.26869,56.279732 c -21.15996,1.379997 -42.24592,3.620055 -63.38588,5.270051 -36.18993,3.229994 -72.55573,4.510563 -108.87565,3.660565 -13.75998,0 -27.48781,-1.141574 -41.13778,-2.77157 13.80997,5.949988 28.8883,8.21894 43.75827,9.778937 25.76995,2.479995 51.72039,1.372347 77.47034,-0.807648 26.54995,-2.479995 53.01312,-6.242596 79.10306,-11.812585 4.36999,-1.019998 8.84765,-1.727753 13.06764,-3.31775 z"
         style="fill:#fbfbfb"
         id="path412" />
      <path
         d="m 647.45514,58.417967 c -1.1796,-0.01103 -2.3606,0.01922 -3.54435,0.09297 -8.55998,1.379998 -16.82969,4.070492 -25.01967,6.850486 5.04999,3.369993 10.97846,5.500572 17.08844,5.560572 12.67998,0.469999 24.31207,-5.310197 36.04204,-9.250189 -8.14623,-1.207497 -16.30921,-3.176589 -24.56646,-3.253835 z"
         style="fill:#fbfbfb"
         id="path411" />
      <path
         d="m 1238.741,58.18555 c -5.7045,-8.38e-4 -11.4258,0.338707 -17.0827,0.644957 9.6,3.789992 20.0307,5.000147 30.2607,5.880145 5.45,0.04 11.4312,0.918366 16.3912,-1.911628 -2.6,-0.789999 -5.1992,-1.470805 -7.8092,-2.120804 -7.1156,-1.929371 -14.4257,-2.491593 -21.76,-2.49267 z"
         style="fill:#fbfbfb"
         id="path410" />
      <path
         d="m 1273.6616,58.749161 c 22.3199,7.139985 46.0412,7.81368 69.2311,9.633677 25.96,1.269997 52.0769,1.876014 77.9468,-1.10398 10.65,-1.519997 21.6989,-2.950959 31.3589,-8.000949 -21.94,3.099994 -44.1372,2.710898 -66.2272,2.730897 -14.96,-0.699998 -29.953,-0.598142 -44.9029,-1.52814 -22.47,-0.339999 -44.9468,-1.481506 -67.4067,-1.731505 z"
         style="fill:#fbfbfb"
         id="path409" />
      <path
         d="m 579.50228,60.207576 c -11.67998,3.919992 -22.57438,9.761445 -33.76435,14.851435 4.30999,1.419997 8.87464,2.132727 13.40464,1.632728 12.32997,-1.139998 23.67942,-6.48305 35.0194,-11.063041 -5.27999,-0.259999 -10.8597,-1.47113 -14.65969,-5.421122 z"
         style="fill:#fbfbfb"
         id="path408" />
      <path
         d="m 1198.8234,60.166903 c -4.3075,-0.005 -8.6609,0.531687 -12.8759,1.051686 7.23,3.489993 14.7254,6.509028 22.5154,8.489025 6.9899,1.399997 14.3881,2.951833 21.3881,0.801838 l 0.07,-0.581043 c -6.01,-2.859994 -12.2829,-5.15774 -18.4829,-7.547736 -4.045,-1.659996 -8.3069,-2.20877 -12.6144,-2.21377 z"
         style="fill:#fbfbfb"
         id="path407" />
      <path
         d="m 1166.5116,64.332975 c -4.542,-0.04704 -9.1464,0.691192 -13.5789,1.38869 11.9499,6.959986 25.1056,12.375685 38.9356,13.985682 3.81,0.289999 7.893,0.72195 11.493,-0.918046 -8.64,-4.579991 -17.4839,-8.748895 -26.4839,-12.538888 -3.3425,-1.369372 -6.8331,-1.880849 -10.3658,-1.917438 z"
         style="fill:#fbfbfb"
         id="path406" />
      <path
         d="m 508.23166,66.430536 c -0.35531,-0.02406 -0.72229,0.05964 -1.10979,0.302142 -28.66994,9.229982 -58.22129,15.846318 -88.23123,18.686312 -1.97,-0.209999 -4.33983,2.359194 -2.57983,4.00919 4.18999,0.789999 8.48902,0.400218 12.71901,0.790218 24.82995,-0.17 49.41282,-4.607821 73.47277,-10.487809 7.94998,-2.149996 15.97613,-4.172757 23.59611,-7.332751 -5.10999,-0.789998 -10.4663,-1.515925 -14.88629,-4.415919 -0.9675,-0.457499 -1.91481,-1.479195 -2.98075,-1.551383 z"
         style="fill:#fbfbfb"
         id="path405" />
      <path
         d="m 687.94215,67.947056 c -2.01484,0.0031 -4.02622,0.12842 -6.03121,0.400919 -10.17998,2.599995 -20.15289,6.084576 -29.70287,10.464567 5.53999,6.199988 14.75068,5.679832 22.23067,4.479834 10.96998,-2.789994 21.10115,-8.070242 31.41113,-12.620233 -5.81249,-1.627496 -11.8632,-2.734462 -17.90772,-2.725087 z"
         style="fill:#fbfbfb"
         id="path404" />
      <path
         d="m 609.86172,69.010363 c -12.75997,6.059988 -25.30463,12.58131 -37.92461,18.901298 9.09998,4.449991 19.63347,2.719142 29.13345,0.639146 10.16998,-2.629995 20.2198,-6.138984 29.42978,-11.248974 -7.61999,-0.299999 -14.89863,-3.31148 -20.63862,-8.29147 z"
         style="fill:#fbfbfb"
         id="path403" />
      <path
         d="m 1136.9889,70.038807 c -4.135,0.0042 -8.3109,0.624091 -12.2484,1.499089 10.82,7.489985 23.1681,13.342262 36.4081,14.642259 3.4,0.519999 6.8108,-0.240616 10.1508,-0.900615 -5.92,-4.509991 -12.6712,-7.790052 -19.1511,-11.400045 -4.5957,-2.829369 -9.843,-3.846115 -15.1594,-3.840688 z"
         style="fill:#fbfbfb"
         id="path402" />
      <path
         d="m 1278.6121,69.992324 c -0.5302,-0.0085 -1.059,-0.0092 -1.5921,0.0058 -6.33,0.129999 -12.8478,-0.498339 -18.9478,1.481657 7.81,2.739994 15.98,4.239475 24.09,5.839472 16.79,3.079994 33.7489,5.241067 50.7889,6.281065 10.09,0.339999 20.4275,0.870536 30.2374,-2.039458 -5.2999,-1.569997 -10.8882,-1.082853 -16.2982,-1.812851 -15.04,-1.179998 -30.0597,-2.857459 -44.8797,-5.717454 -7.8093,-1.274997 -15.4464,-3.911313 -23.3985,-4.038242 z"
         style="fill:#fbfbfb"
         id="path401" />
      <path
         d="m 1242.6862,76.494185 c -0.3903,-0.01266 -0.7812,0.03431 -1.1737,0.174312 -6.07,1.849996 -12.4551,2.843371 -18.7851,2.103372 12.31,4.95999 25.0043,9.476011 38.2442,11.156007 8.34,0.939999 17.1182,1.582375 25.1882,-1.237619 -13.35,-3.709993 -26.7515,-7.210328 -39.9815,-11.33032 -1.1625,-0.247499 -2.3211,-0.827784 -3.4921,-0.865752 z"
         style="fill:#fbfbfb"
         id="path400" />
      <path
         d="m 1110.3888,76.98226 c -0.342,-0.0018 -0.686,0.0031 -1.0285,0.01162 -4.2615,0.106127 -8.5476,0.996973 -12.4808,2.35322 6.37,3.889992 12.6031,8.021246 19.0931,11.731239 8.15,4.319991 18.1582,7.299486 27.0882,3.509494 -5.61,-5.04999 -11.9809,-9.14789 -18.1808,-13.427882 -4.3137,-2.942572 -9.3622,-4.150773 -14.4912,-4.177691 z"
         style="fill:#fbfbfb"
         id="path399" />
      <path
         d="m 533.54766,79.707347 c -18.51996,8.659983 -37.82589,15.621742 -57.68585,20.481733 -2.46,0.4 -4.5707,1.81987 -5.7407,4.04986 4.90999,1.06 9.95861,0.50309 14.9386,0.27309 23.65995,-1.83999 46.66073,-8.990766 68.08069,-19.040746 -6.80999,-0.06 -14.27275,-1.163946 -19.59274,-5.763937 z"
         style="fill:#fbfbfb"
         id="path398" />
      <path
         d="m 718.01689,79.567897 c -4.9308,-0.100232 -9.44819,2.311783 -13.98568,3.933655 -8.28999,3.369993 -16.71216,6.607362 -24.39215,11.237353 7.33999,6.039985 17.69933,4.972486 26.37931,3.172489 11.01998,-3.299993 21.64434,-7.83865 32.29432,-12.178641 -6.01999,-3.089994 -12.50223,-5.622563 -19.30222,-6.112562 -0.3325,-0.03 -0.66486,-0.04561 -0.99358,-0.05229 z"
         style="fill:#fbfbfb"
         id="path397" />
      <path
         d="m 640.79059,84.291769 c -12.44997,6.219987 -24.7428,12.750485 -37.12277,19.110471 5.58999,3.14 12.24485,2.78741 18.42484,2.34741 14.02997,-1.66 27.17978,-7.271409 39.78976,-13.381397 -7.61999,-0.639999 -15.29184,-2.876495 -21.09183,-8.076484 z"
         style="fill:#fbfbfb"
         id="path396" />
      <path
         d="m 1213.9886,85.029692 c -6.73,2.379995 -13.9773,2.607589 -20.9873,1.667591 6.64,3.509993 13.6562,6.240717 20.4062,9.54071 11.43,4.749987 24.3825,6.953777 36.5824,4.113777 -11.7299,-5.719988 -23.9714,-10.302088 -36.0013,-15.322078 z"
         style="fill:#fbfbfb"
         id="path395" />
      <path
         d="m 1081.3192,86.615937 c -4.1994,0.09516 -8.4297,0.814124 -12.4285,1.754747 7.8,5.599989 15.6791,11.27129 24.5491,15.101286 6.94,3.00999 14.9807,3.95679 22.2306,1.44679 -5.9699,-5.299988 -12.359,-10.126855 -18.849,-14.746846 -4.225,-2.459995 -8.923,-3.452227 -13.7067,-3.555977 -0.598,-0.01297 -1.1956,-0.01359 -1.7955,0 z"
         style="fill:#fbfbfb"
         id="path394" />
      <path
         d="m 1180.8227,91.682623 c -6.8,1.389998 -13.8927,3.298659 -20.8827,1.818662 5.72,3.719993 11.932,6.610965 17.9019,9.900955 11.02,5.77999 24.2053,9.7569 36.4953,5.85691 -10.56,-6.92999 -22.0545,-12.326537 -33.5145,-17.576527 z"
         style="fill:#fbfbfb"
         id="path393" />
      <path
         d="m 955.87226,92.437978 c 0.98,2.269996 1.8849,4.651685 1.5049,7.18168 0.81,-0.409999 1.64105,-0.808569 2.48105,-1.208568 -0.31,-2.579995 -1.67596,-4.723114 -3.98595,-5.973112 z"
         style="fill:#0a0a0a"
         id="path392" />
      <path
         d="m 562.47775,93.971929 c -16.88997,8.299981 -34.16963,15.955751 -52.2996,21.155741 -2.56999,0.43 -3.96632,2.69507 -4.52631,5.05507 7.04998,1.12999 14.19547,-0.0825 21.22546,-0.84252 20.86996,-3.23999 41.55125,-9.0874 60.34122,-18.83738 -8.50999,0.04 -17.82079,-1.180922 -24.74077,-6.530911 z"
         style="fill:#fbfbfb"
         id="path391" />
      <path
         d="m 746.81914,95.407103 c -2.30514,0.04466 -4.59882,0.509461 -6.79819,1.510709 -9.98998,4.099988 -20.33331,7.803278 -29.38329,13.753268 7.11998,6.13999 17.60366,5.67897 26.12365,3.21897 9.00998,-3.68999 17.81134,-7.9281 26.50132,-12.31809 -4.5928,-3.622494 -10.55256,-6.279001 -16.44349,-6.164857 z"
         style="fill:#fbfbfb"
         id="path390" />
      <path
         d="m 932.76422,94.977132 c -2.60905,0.0035 -5.21278,0.146963 -7.8034,0.453213 3.96,0.549999 9.22861,0.842079 10.70861,5.392065 -0.92,2.68 -1.77984,5.82884 -4.47984,7.26884 -1.27999,1.01 -3.18108,1.36778 -3.95108,2.88778 2.94999,-1.28 6.47435,-1.64817 9.67435,-1.09817 2.49999,0.56 0.48902,3.48953 0.45902,4.97953 5.60999,-1.35 9.3755,-5.91959 12.76549,-10.24958 1.2,0.05 2.42476,0.0995 3.65476,0.13945 0.72,-3.16999 0.18539,-7.832969 -3.9046,-8.122969 -5.63062,-1.003748 -11.3834,-1.657894 -17.12331,-1.650159 z m 5.80461,3.962707 c 1.42999,0.05 2.88201,0.08783 4.352,0.127829 -0.2,1.479992 -1.15333,2.979842 -0.63333,4.479832 0.34,2.33999 2.93442,2.92122 4.58442,4.13121 -2.52999,1.16 -5.84378,2.844 -8.34377,0.67401 -2.62998,-2.44999 -1.66932,-6.69289 0.0407,-9.412881 z"
         style="fill:#0a0a0a"
         id="path389" />
      <path
         d="m 1055.5616,96.88876 c -4.2662,0.0175 -8.6402,0.954735 -12.6202,1.969733 10.4,9.079977 22.4474,19.379457 37.2274,18.099457 1.15,-0.41 3.7284,0.39293 3.7884,-1.37707 -5.09,-5.43999 -10.6777,-10.42196 -16.4377,-15.14195 -3.535,-2.664998 -7.6916,-3.56767 -11.9579,-3.55017 z"
         style="fill:#fbfbfb"
         id="path388" />
      <path
         d="m 938.56883,98.939839 c -1.71,2.719991 -2.67067,6.962881 -0.0407,9.412881 2.5,2.17 5.81377,0.48599 8.34377,-0.67401 -1.65,-1.21 -4.24442,-1.79121 -4.58442,-4.13121 -0.52,-1.5 0.43333,-2.99984 0.63333,-4.479832 -1.46999,-0.04 -2.92201,-0.07783 -4.352,-0.127829 z"
         style="fill:#fbfbfb"
         id="path387" />
      <path
         d="m 668.98275,100.3692 c -10.88998,6.34999 -21.52987,13.10141 -32.36985,19.51139 2.35,0.93 4.74532,1.92946 7.31532,2.03946 16.07997,1.22 31.45375,-5.51007 45.12372,-13.30005 -7.29998,-0.74 -14.4592,-3.46081 -20.06919,-8.2508 z"
         style="fill:#fbfbfb"
         id="path386" />
      <path
         d="m 1152.7409,102.17043 c -6.93,1.45 -14.0715,2.97841 -21.1615,1.45842 3.99,3.01999 8.4012,5.4204 12.5912,8.1404 5.6299,3.40999 11.0418,7.32814 17.2918,9.55814 7.3699,2.74999 15.6262,4.5608 23.3462,2.1208 0.02,-0.22 0.08,-0.67061 0.1104,-0.90061 -9.6299,-8.35999 -21.0381,-14.29716 -32.1781,-20.37715 z"
         style="fill:#fbfbfb"
         id="path385" />
      <path
         d="m 1028.0667,107.91113 c -3.6875,-0.008 -7.4322,0.44603 -10.9584,0.79603 10.17,10.31997 23.9226,20.38382 39.2726,17.41383 -4.73,-5.11999 -9.6886,-10.07389 -14.9386,-14.65389 -3.9825,-2.76749 -8.6345,-3.54516 -13.3756,-3.55597 z"
         style="fill:#fbfbfb"
         id="path384" />
      <path
         d="m 595.64944,110.00869 c -15.40997,7.01999 -30.62893,14.53067 -46.5589,20.33066 -2.2,0.6 -3.63855,2.66305 -3.53855,4.93305 8.89998,0.52 17.80878,-0.65971 26.51876,-2.39971 17.01997,-3.64999 33.91726,-8.8236 49.30723,-17.05358 -8.77998,-0.1 -18.04856,-1.30043 -25.72854,-5.81042 z"
         style="fill:#fbfbfb"
         id="path383" />
      <path
         d="m 1123.009,112.50136 c -6.83,2.13 -14.0999,3.09976 -21.1499,1.53976 8.72,6.23999 16.6499,13.56602 25.8099,19.18601 8.7299,4.76999 19.6822,7.31368 29.2322,3.50368 -10.17,-9.53998 -22.0822,-16.92946 -33.8922,-24.22945 z"
         style="fill:#fbfbfb"
         id="path382" />
      <path
         d="m 769.2648,115.31941 c -2.22939,0.009 -4.44474,0.46511 -6.51348,1.45261 -7.59999,3.26999 -15.2331,6.49849 -22.46309,10.52848 3.55999,2.05 7.57382,3.4068 11.71381,3.3468 11.05998,0.27 21.17714,-5.01907 30.73712,-9.95906 -3.60249,-3.26562 -8.5697,-5.38846 -13.47436,-5.36883 z"
         style="fill:#fbfbfb"
         id="path381" />
      <path
         d="m 699.20856,116.88242 c -10.13998,5.70999 -19.97112,11.9161 -29.9411,17.89609 6.43999,3.21 13.87025,1.94306 20.65024,0.70306 10.07998,-2.14999 19.95982,-5.55173 28.99981,-10.55172 -7.16999,-0.81 -14.16896,-3.34744 -19.70895,-8.04743 z"
         style="fill:#fbfbfb"
         id="path380" />
      <path
         d="m 1094.0092,124.26165 c -6.14,1.36 -12.5077,2.86031 -18.7677,1.40031 -0.01,0.22 -0.042,0.65738 -0.052,0.87738 9.02,8.13998 17.4431,17.42875 28.5931,22.71874 7.69,3.77999 16.669,4.4301 24.979,2.5101 -10.68,-10.20998 -22.4721,-19.33655 -34.7521,-27.50653 z"
         style="fill:#fbfbfb"
         id="path379" />
      <path
         d="m 628.89085,125.96991 c -13.55997,6.49999 -26.92985,13.48156 -40.82982,19.26155 -2.01,0.59 -2.82209,2.55659 -3.06209,4.45659 5.73998,0.46 11.47237,-0.35884 17.15236,-1.13884 17.42996,-2.91 34.61625,-8.14134 50.19622,-16.57132 -8.09998,-0.1 -16.64668,-1.28799 -23.45667,-6.00798 z"
         style="fill:#fbfbfb"
         id="path378" />
      <path
         d="m 791.51871,130.20571 c -1.92363,0.0393 -3.83125,0.44971 -5.60125,1.34221 -5.52999,2.64999 -11.36769,4.79147 -16.43768,8.29147 10.56998,5.29999 22.33265,-0.39729 31.24263,-6.39728 0.02,-0.20999 0.0555,-0.62089 0.0755,-0.83089 -2.81249,-1.49999 -6.07319,-2.47094 -9.27924,-2.40551 z"
         style="fill:#fbfbfb"
         id="path377" />
      <path
         d="m 728.96953,133.12835 c -9.03998,4.29999 -17.5977,9.5508 -26.36769,14.38079 6.04999,2.71 12.92899,2.01899 19.27898,0.889 8.71998,-1.81 17.17076,-4.84631 25.17074,-8.75631 -6.46999,-0.69 -12.59204,-3.11348 -18.08203,-6.51348 z"
         style="fill:#fbfbfb"
         id="path376" />
      <path
         d="m 1044.9518,133.22132 c 8.23,8.68998 15.5599,18.29746 24.7698,26.00744 8.09,6.73999 19.2911,7.73932 29.331,6.08932 -9.6499,-11.82998 -21.9737,-21.08066 -33.7236,-30.69064 -6.77,1.35 -13.8772,0.95387 -20.3772,-1.40612 z"
         style="fill:#fbfbfb"
         id="path375" />
      <path
         d="m 1021.3906,136.14977 c 6.5899,11.30998 11.7507,23.86969 21.3707,33.04967 5.98,5.88999 14.8189,7.56336 22.8989,6.33336 -8.2,-13.43997 -18.8822,-25.15118 -29.0521,-37.11115 -5.16,-0.09 -10.2575,-0.88188 -15.2175,-2.27188 z"
         style="fill:#fbfbfb"
         id="path374" />
      <path
         d="m 998.91004,138.09045 c 3.96996,10.76998 6.88766,22.12085 13.06766,31.91083 3.88,6.39999 11.2944,10.21096 18.7444,9.90096 -4.89,-13.58998 -12.1117,-26.17945 -19.0117,-38.81942 -4.33,-0.7 -8.6304,-1.62237 -12.80036,-2.99237 z"
         style="fill:#fbfbfb"
         id="path373" />
      <path
         d="m 660.79006,140.39138 c -10.47998,5.46999 -20.98749,10.90732 -31.70746,15.89731 -1.09,0.63 -2.81475,1.99842 -1.75475,3.35842 2.23999,0.38 4.52495,0.15541 6.77495,-0.10459 15.61997,-2.07999 30.74513,-7.14135 44.7751,-14.24134 -6.16999,-0.83 -12.75785,-1.35981 -18.08784,-4.9098 z"
         style="fill:#fbfbfb"
         id="path372" />
      <path
         d="m 812.47689,141.24551 c -1.22846,0.0225 -2.44889,0.18729 -3.65475,0.53456 -3.81999,1.44 -7.28185,3.68204 -10.73185,5.82204 7.77999,5.24999 17.30962,0.53704 23.97961,-4.32295 -2.86687,-1.09313 -5.97169,-1.991 -9.06426,-2.03365 -0.17571,-0.002 -0.35325,-0.003 -0.52875,0 z"
         style="fill:#fbfbfb"
         id="path371" />
      <path
         d="m 988.74762,142.62839 c -2.91,0.81 -5.83861,1.5123 -8.8086,1.9523 1.86,8.40998 2.6593,17.25036 6.51929,25.06034 2.36,4.90999 7.52997,7.60876 12.68996,8.55875 -3.33999,-11.88997 -7.09066,-23.67141 -10.40065,-35.57139 z"
         style="fill:#fbfbfb"
         id="path370" />
      <path
         d="m 946.76733,144.90026 c -3.19999,0.19 -6.34802,0.81124 -9.37802,1.80123 -0.11,4.76999 -0.0511,9.70068 1.74894,14.20067 1.68,4.27999 5.37167,7.51802 9.51166,9.37802 -0.78,-8.44998 -1.35258,-16.91993 -1.88258,-25.37992 z"
         style="fill:#fbfbfb"
         id="path369" />
      <path
         d="m 959.05056,145.01066 c 0.44,6.99999 0.50115,14.25686 3.09114,20.87684 1.89,4.83999 6.38779,7.8342 10.91778,9.9242 -1.73999,-10.18998 -3.36816,-20.41283 -5.32815,-30.56281 -2.9,-0.07 -5.80078,-0.0982 -8.68077,-0.23823 z"
         style="fill:#fbfbfb"
         id="path368" />
      <path
         d="m 758.81185,145.30118 c -7.72998,4.43999 -15.3324,9.11692 -22.85238,13.88691 13.90997,3.13999 27.9107,-2.49525 40.19068,-8.60523 -6.04999,-0.61 -12.10831,-2.08168 -17.3383,-5.28168 z"
         style="fill:#fbfbfb"
         id="path367" />
      <path
         d="m 693.90946,152.19815 c -8.37999,3.49999 -16.58942,7.4828 -25.0894,10.7028 -1.55,0.29 -2.23267,1.64628 -2.49267,3.05628 14.38997,0.35 28.63074,-3.66816 41.66071,-9.55814 -4.90999,-0.55 -9.72865,-1.82094 -14.07864,-4.20094 z"
         style="fill:#fbfbfb"
         id="path366" />
      <path
         d="m 926.76786,153.58103 c -3.62999,2.33 -7.1205,4.86114 -10.6505,7.32113 2.88,4.24999 6.9329,7.48852 11.31289,10.09851 -0.02,-5.81999 -0.52239,-11.60965 -0.66239,-17.41964 z"
         style="fill:#fbfbfb"
         id="path365" />
      <path
         d="m 788.14866,155.08012 c -7.02998,4.22999 -13.64972,9.12043 -20.35971,13.84042 2.34,0.42 4.74101,0.89132 7.14101,0.51132 10.23998,-1.21 19.77783,-5.76021 28.44782,-11.1502 -5.33999,0.38 -10.28913,-1.67154 -15.22912,-3.20154 z"
         style="fill:#fbfbfb"
         id="path364" />
      <path
         d="m 816.8289,163.23214 c -5.33999,3.90999 -10.64815,7.87541 -15.68814,12.1554 10.09998,1.67 19.89056,-3.20741 28.18054,-8.4774 -4.36999,-0.39 -8.66241,-1.538 -12.4924,-3.678 z"
         style="fill:#fbfbfb"
         id="path363" />
      <path
         d="m 728.28971,164.83001 c -11.43997,7.74998 -22.6611,15.82992 -34.17108,23.4799 5.87999,1.58 12.05259,1.2415 17.94258,-0.1685 13.94997,-3.35999 26.61867,-10.66333 38.16865,-19.02331 -7.52998,-0.09 -15.02016,-1.4381 -21.94015,-4.28809 z"
         style="fill:#fbfbfb"
         id="path362" />
      <path
         d="m 860.69757,171.98844 c -11.29348,0.35336 -21.74394,6.24059 -30.06892,13.59058 3.06999,1.02 6.12236,2.11099 9.12236,3.34099 -12.11998,5.22999 -22.74978,13.50901 -31.75976,23.07899 -7.94998,8.67998 -15.09182,18.73959 -17.29181,30.53957 -0.41,3.52999 -2.23718,7.62347 0.34281,10.74347 2.39,-3.67 3.0856,-8.1207 5.34559,-11.87069 6.45999,-12.17998 18.33149,-20.23908 30.48147,-26.01907 0.16,0.59 0.47914,1.76485 0.63914,2.36485 9.97998,-4.15 20.94128,-4.48846 31.59126,-4.82846 6.71998,-0.2 13.65228,-2.45695 18.44227,-7.32694 6.83999,-6.67999 8.71964,-18.36 3.25965,-26.41999 -3.79999,-5.76998 -11.41219,-7.1433 -17.83218,-7.1933 -0.76,-0.0269 -1.51898,-0.0236 -2.27188,0 z"
         style="fill:#fbfbfb"
         id="path361" />
      <path
         d="m 760.1773,174.42882 c -10.45998,7.40999 -19.94987,16.09182 -30.46984,23.4218 5.77998,0.18 11.71992,0.58764 17.34991,-1.09235 13.42997,-3.62 25.02426,-11.88971 35.48424,-20.78969 -7.43999,0.16 -15.42432,2.17023 -22.36431,-1.53976 z"
         style="fill:#fbfbfb"
         id="path360" />
      <path
         d="m 896.01331,177.40376 c -2.31174,0.0462 -4.62056,0.39495 -6.83306,1.01682 4.88999,9.90998 2.40251,22.69891 -5.28748,30.4989 -2.56999,2.67999 -6.08533,4.08311 -9.21533,5.97311 10.24998,0.45 21.03069,-0.22061 30.26067,-5.1306 5.26999,-2.76 10.0191,-7.35007 11.4291,-13.30006 1.32,-5.56998 -1.43541,-11.54009 -6.0254,-14.77008 -4.13875,-3.03875 -9.24268,-4.38985 -14.3285,-4.28809 z"
         style="fill:#fbfbfb"
         id="path359" />
      <path
         d="m 794.92942,181.95913 c -9.67998,7.33998 -18.41704,15.83184 -28.22702,22.99183 5.64999,0.13 11.43604,0.32023 16.85603,-1.53976 12.40998,-3.88999 23.15229,-11.83891 32.60227,-20.56889 -4.42999,-0.26 -8.80939,1.27722 -13.25938,1.12722 -2.74999,-0.25 -5.4119,-1.05041 -7.9719,-2.0104 z"
         style="fill:#fbfbfb"
         id="path358" />
      <path
         d="m 684.29902,195.52065 c -17.98996,12.25997 -36.10031,24.34649 -54.24027,36.39647 10.20998,6.52999 24.08125,4.59362 33.92123,-1.76637 16.30997,-10.06998 32.2178,-20.87917 47.26777,-32.75915 -8.83998,1.24 -18.84875,2.96904 -26.94873,-1.87095 z"
         style="fill:#fbfbfb"
         id="path357" />
      <path
         d="m 721.66002,204.60233 c -17.97996,14.62997 -36.1275,29.16805 -55.79746,41.49803 8.94998,4.68999 19.71673,3.12152 28.72672,-0.59848 15.84996,-6.54998 28.74802,-18.20038 41.92799,-28.86036 3.93999,-3.44999 8.27164,-6.49417 11.84164,-10.35416 -8.75999,1.88999 -18.4889,2.56496 -26.69889,-1.68503 z"
         style="fill:#fbfbfb"
         id="path356" />
      <path
         d="m 758.92225,212.13264 c -15.57997,13.90997 -31.80964,27.05584 -48.06961,40.15581 5.13999,2.23 10.90891,1.96114 16.3389,1.19114 10.96998,-1.96 21.11671,-7.52102 29.15669,-15.17101 9.10999,-8.50998 18.41398,-16.82021 27.52396,-25.31019 -8.23998,1.33 -17.00996,2.47424 -24.94994,-0.86575 z"
         style="fill:#fbfbfb"
         id="path355" />
      <path
         d="m 795.56276,214.77057 c -15.03997,13.63997 -29.73109,27.66034 -44.53106,41.55032 7.32998,0.32999 14.86737,-1.21089 21.16736,-5.06088 5.08999,-3.01999 8.99006,-7.5595 13.30005,-11.5395 1.91,-8.83998 6.04366,-16.92996 10.06365,-24.94994 z"
         style="fill:#fbfbfb"
         id="path354" />
      <path
         d="m 911.5097,231.33608 c -3.06287,-0.0957 -5.68358,4.11799 -3.60827,6.66455 3.02999,3.67999 7.39812,6.13892 9.98811,10.20891 2.05,3.32999 1.53251,7.4421 0.84251,11.09209 3.99999,-2.82999 7.67884,-7.11391 7.26884,-12.3239 0.02,-3.68999 -3.00006,-6.21983 -5.27005,-8.70982 -2.62,-2.41 -5.01243,-5.21752 -8.26242,-6.75752 -0.32156,-0.10875 -0.64187,-0.16441 -0.95872,-0.17431 z"
         style="fill:#fbfbfb"
         id="path353" />
      <path
         d="m 855.10214,233.11988 c -2.9727,-0.0563 -5.72781,3.87064 -3.67219,6.60063 2.63,3.28 6.30035,5.53956 9.00034,8.77955 2.9,3.56999 2.92191,8.44902 1.84191,12.71901 4.98999,-3.26999 9.29861,-9.87084 6.47862,-15.85083 -3.17,-4.43999 -7.18923,-8.34045 -11.60922,-11.51044 -0.6525,-0.50062 -1.35345,-0.72494 -2.03946,-0.73792 z"
         style="fill:#fbfbfb"
         id="path352" />
      <path
         d="m 876.02546,233.10826 c -0.33586,7.5e-4 -0.678,0.0352 -1.03425,0.10458 -2.03,1.21 -3.78025,3.97459 -2.26026,6.23458 3.32,4.25 9.02966,6.4618 11.28965,11.59179 1.48,3.05 0.97226,6.50084 0.48227,9.72084 3.64999,-2.79 7.1144,-6.77896 6.9144,-11.67895 0.32,-4.98999 -4.2583,-7.99048 -7.40829,-11.08047 -2.3925,-1.91218 -4.73688,-4.89969 -7.98352,-4.89237 z"
         style="fill:#fbfbfb"
         id="path351" />
      <path
         d="m 893.60779,232.61437 c -2.79654,0.13933 -5.43155,3.6675 -3.66056,6.30431 2.98999,3.99999 7.74188,6.44158 10.30188,10.80157 1.88999,3.30999 1.24345,7.21739 0.81345,10.80738 4.96999,-3.27999 9.16498,-9.72815 6.34498,-15.68814 -3.15999,-4.43999 -7.17017,-8.34044 -11.58016,-11.51044 -0.61313,-0.47812 -1.27892,-0.69477 -1.9465,-0.71468 -0.0904,-0.003 -0.18287,-0.004 -0.27309,0 z"
         style="fill:#fbfbfb"
         id="path350" />
      <path
         d="m 837.21766,234.31101 c -2.99999,0.24 -5.07839,3.53756 -3.78839,6.32755 3.22999,4.41999 8.88008,6.88865 10.97007,12.17864 1.38,3.01 0.5704,6.40329 0.1104,9.52328 4.15999,-2.69999 7.66856,-7.22269 7.33856,-12.42268 0,-3.87999 -3.44975,-6.3694 -5.76974,-9.02939 -2.75,-2.4 -5.1709,-5.6874 -8.8609,-6.5774 z"
         style="fill:#fbfbfb"
         id="path349" />
      <path
         d="m 820.05949,234.94435 c -0.35381,-0.0183 -0.71942,0.003 -1.09817,0.0755 -2.63999,0.5 -3.56872,3.6515 -2.85872,5.9615 3.21999,4.39999 8.9368,6.53598 11.3768,11.58597 1.54,3.04 0.9682,6.53476 0.6682,9.78475 4.82999,-3.08 8.2943,-9.20278 6.3043,-14.93278 -1.87999,-3.57 -5.23297,-6.03887 -8.12296,-8.73887 -1.89,-1.4525 -3.79279,-3.60813 -6.26945,-3.7361 z"
         style="fill:#fbfbfb"
         id="path348" />
    </g>
    <g
       id="g418">
      <path
         id="path72"
         d="m 308.65534,294.98342 c -4.37598,-0.0156 -8.75419,0.24422 -13.09669,0.7786 -22.92997,2.68 -44.9605,13.1664 -61.16048,29.65638 -16.28998,16.29999 -26.61057,38.58021 -27.75057,61.66019 -1.17,23.28997 4.47397,47.25364 17.59395,66.70362 11.10999,16.78999 27.78675,29.74728 46.68673,36.61727 17.22999,6.37 36.06962,7.77005 54.1996,5.27005 18.15999,-2.54999 35.77113,-9.87165 49.80112,-21.77164 16.33998,-13.67999 27.39893,-33.13843 31.96893,-53.86841 4.16,-18.80998 4.44944,-38.85752 -1.76056,-57.2675 -7.26999,-21.84998 -22.70541,-40.71337 -42.37539,-52.61336 -16.18499,-9.91249 -35.14405,-15.09769 -54.10664,-15.1652 z m -0.40092,44.9436 c 9.80015,0.0328 19.58469,2.79806 27.97718,7.89056 14.47998,8.65999 25.20659,24.06225 26.64659,41.06224 0.87999,13.54998 -2.66082,27.38808 -10.15081,38.73807 -6.98999,10.45999 -17.45735,18.75229 -29.62733,22.24229 -12.91999,3.89999 -27.3694,2.50053 -39.24939,-3.93947 -15.14999,-7.87999 -25.64981,-23.25045 -28.99981,-39.83043 -2.22,-10.52999 -1.96097,-21.85111 2.35903,-31.8411 7.08999,-17.06999 23.16887,-29.94735 41.28885,-33.42735 3.21999,-0.6125 6.48898,-0.90574 9.75569,-0.89481 z" />
      <path
         id="path73"
         d="m 688.77885,294.98923 c -5.26515,-0.048 -10.53293,0.26143 -15.74042,0.90643 -19.79998,2.45 -38.96775,10.70745 -53.82774,24.10743 -15.39998,13.64999 -25.8708,32.43164 -30.44079,52.42162 -3.43,15.52998 -4.23792,31.83885 -0.73792,47.41884 4.70999,21.43998 17.29648,40.9027 34.49646,54.47269 14.86999,11.93999 33.18206,19.44935 52.10204,21.71935 19.55998,2.43 39.84006,-0.65751 57.68004,-9.0875 16.86999,-7.88999 31.59883,-20.46502 41.71882,-36.135 10.02999,-15.31999 15.52911,-33.64585 15.22911,-51.98583 0.1,-21.27998 -5.65099,-42.77041 -17.50098,-60.55039 -9.27999,-13.88999 -22.189,-25.39849 -37.23899,-32.71848 -14.15998,-7.0725 -29.94417,-10.42525 -45.73963,-10.56916 z m 0.0174,44.82159 c 2.78005,0.0638 5.55397,0.36043 8.29147,0.8948 12.95998,2.31 24.782,9.8681 32.67199,20.34809 6.29819,8.21157 10.28966,18.06819 11.80677,28.28513 0.76643,5.1615 0.90036,10.413 0.38349,15.59517 -1.93,16.59998 -12.66819,31.52099 -27.08818,39.69098 -11.13999,6.44999 -24.62386,8.78011 -37.27384,6.31012 -25.27998,-4.72 -46.54565,-28.8693 -44.63565,-55.12927 0.76999,-17.08999 8.63649,-34.08958 22.23647,-44.69957 9.43312,-7.52374 21.56056,-11.57186 33.60748,-11.29545 z" />
      <path
         fill="#0a0a0a"
         d="m 980.1,300.4 c 30.72,-10.77 66.54,-5.44 92.55,14.2 4.22,3.1 8.09,6.64 11.85,10.29 -10.92,10.84 -21.63,21.9 -32.73,32.55 -10.22,-10.64 -24.96,-16.85 -39.72,-16.45 -12.45,0.05 -24.72,4.83 -34.18,12.86 -13.91,11.56 -21.5,30.33 -19.21,48.3 1.65,15.01 9.89,29.13 22.08,38.02 11.67,8.66 26.92,12.35 41.25,9.82 17.57,-2.9 33.09,-15.04 40.47,-31.2 -17.15,-0.02 -34.3,-0.01 -51.45,0 -0.02,-14.6 0,-29.19 -0.01,-43.79 34.08,0 68.17,0 102.25,0 -0.4,12.37 1.08,24.83 -1.08,37.09 -3.38,21.13 -13.67,41.13 -29.08,55.99 -18.36,18.31 -44.14,28.82 -70.06,28.72 -25.96,0.2 -51.75,-10.3 -70.2,-28.55 -11.67,-11.24 -20.38,-25.44 -25.48,-40.8 -6.96,-21.47 -6.62,-45.3 1.16,-66.5 10.13,-28.02 33.36,-50.97 61.59,-60.55 z"
         id="path74" />
      <path
         fill="#0a0a0a"
         d="m 12.53,494.26 c -0.08,-65.84 -0.07,-131.68 0,-197.51 15.17,0.02 30.33,-0.02 45.5,0.01 13.14,20.01 26.21,40.06 39.39,60.03 13.18,-20.01 26.26,-40.08 39.51,-60.04 15.1,0.01 30.2,-0.01 45.31,0.01 0.01,65.83 0.02,131.66 0,197.49 -15.41,0 -30.83,0 -46.24,0 -0.07,-38.83 0.14,-77.66 -0.1,-116.49 -12.79,20.13 -25.71,40.18 -38.44,60.35 -12.99,-19.97 -25.58,-40.19 -38.48,-60.21 -0.46,38.77 -0.07,77.56 -0.2,116.34 -15.42,0.03 -30.83,-0.02 -46.25,0.02 z"
         id="path75" />
      <path
         fill="#0a0a0a"
         d="m 419.51,342 c -0.04,-15.09 -0.06,-30.17 0.01,-45.26 49.99,0.01 99.97,0.02 149.95,0 0.13,15.06 -0.05,30.13 0.1,45.2 -17.02,0.14 -34.04,0.02 -51.06,0.06 -0.03,50.76 0.07,101.51 -0.05,152.27 -15.98,-0.04 -31.97,-0.02 -47.95,-0.01 -0.06,-50.76 -0.01,-101.51 -0.03,-152.26 -16.99,0 -33.98,0 -50.97,0 z"
         id="path76" />
      <path
         fill="#0a0a0a"
         d="m 1143.75,296.76 c 16.01,-0.01 32.02,-0.01 48.03,0 0.01,46.07 -0.03,92.15 0.02,138.22 -0.27,7.15 6.15,13.46 13.28,13.21 13.3,0.05 26.62,0.05 39.93,0.01 6.78,0.3 13.29,-5.34 13.46,-12.22 0.06,-46.41 -0.04,-92.82 0.05,-139.23 16.09,0.02 32.18,-0.03 48.27,0.02 -0.01,47.74 -0.02,95.48 0.01,143.21 0.41,15.89 -6.89,31.73 -19.14,41.83 -9.34,7.95 -21.52,12.3 -33.76,12.4 -13.98,0.09 -27.97,0.01 -41.96,0.04 -11.8,-0.07 -24.15,0.94 -35.23,-4 -18.94,-7.55 -32.57,-26.84 -32.97,-47.27 0.03,-48.74 0,-97.48 0.01,-146.22 z"
         id="path77" />
      <path
         fill="#0a0a0a"
         d="m 1343,296.76 c 47,-0.02 94,-0.01 141,0 -0.02,15.6 0.03,31.22 -0.02,46.83 -27.17,34.75 -54,69.77 -81.06,104.61 27.03,0.04 54.05,0.02 81.08,0.01 0,15.35 0,30.7 0,46.04 -47.33,-0.01 -94.67,0 -142,0 0,-15.79 0,-31.58 0,-47.37 26.75,-34.95 53.51,-69.9 80.22,-104.88 -26.41,0 -52.82,0 -79.22,0 0,-15.08 0,-30.16 0,-45.24 z"
         id="path78" />
      <path
         fill="#0a0a0a"
         d="m 1520.45,341.97 c 0.1,-15.08 -0.03,-30.15 0.07,-45.22 46.99,0.01 93.99,-0.01 140.99,0.01 -0.05,15.46 0.12,30.92 -0.08,46.37 -9.15,12.57 -19.01,24.66 -28.41,37.06 -17.48,22.68 -35.06,45.28 -52.47,68.01 26.99,0.05 53.97,-0.02 80.96,0.04 -0.02,15.34 0.05,30.68 -0.03,46.02 -47.32,-0.02 -94.64,-0.02 -141.95,0 -0.12,-14.75 0.01,-29.5 -0.07,-44.25 0.03,-1.56 -0.2,-3.33 1.04,-4.53 26.39,-34.48 52.73,-69 79.17,-103.46 -26.41,-0.07 -52.81,0.03 -79.22,-0.05 z"
         id="path79" />
      <path
         fill="#0a0a0a"
         d="m 1697,296.75 c 15.75,0.01 31.49,-0.01 47.24,0.01 0.01,65.83 0.01,131.66 0,197.48 -15.75,0.02 -31.49,0 -47.24,0.01 0,-65.83 0,-131.67 0,-197.5 z"
         id="path80" />
    </g>
  </g>
</svg>
